<?xml version="1.0" encoding="utf-8"?>
<!-- Generator: Adobe Illustrator 24.2.0, SVG Export Plug-In . SVG Version: 6.00 Build 0)  -->
<svg version="1.1" id="Layer_1" xmlns="http://www.w3.org/2000/svg" xmlns:xlink="http://www.w3.org/1999/xlink" x="0px" y="0px"
	 viewBox="0 0 850 853" enable-background="new 0 0 850 853" xml:space="preserve">
<g>
	<path fill="#D8CB5D" d="M0,0.5h850v1.54c-28.32-0.7-56.65,0.04-84.97-0.42c-10.67-0.63-21.35,0.48-32.01-0.34
		c-96.66-0.05-193.33-0.14-289.99,0.06C301.05,2.04,159.02,1.65,17,1.77C12.01,1.82,7.02,1.48,2.04,1.04C1.53,1.43,0.51,2.21,0,2.6
		V0.5z"/>
	<path fill="#D8CB5D" d="M295.79,312.54c-0.1-1.54,1.18-2.7,2.28-3.58c0.67,1.23,0.63,2.95-0.56,3.88
		C297.08,312.76,296.22,312.61,295.79,312.54z"/>
	<path fill="#D8CB5D" d="M595.99,817.9c2.5-0.5,5-0.98,7.53-1.4c-1.76,1.04-3.34,2.32-4.9,3.62l-0.62,0.32
		C597.32,819.58,596.65,818.74,595.99,817.9z"/>
	<path fill="#D8CB5D" d="M299.33,836.33c3.63,0.35,7.27,0.64,10.9,1.04c-1.21,0.66-2.41,1.33-3.61,2.01
		c0.77,0.33,1.55,0.65,2.34,0.98c-2.68-0.31-5.46-0.81-7.42-2.82C300.99,837.24,299.88,836.63,299.33,836.33z"/>
</g>
<g>
	<g>
		<path fill="#ECD000" d="M0,2.6c0.51-0.39,1.53-1.17,2.04-1.56C7.02,1.48,12.01,1.82,17,1.77c142.02-0.12,284.05,0.27,426.03-0.43
			c96.66-0.2,193.33-0.11,289.99-0.06c10.66,0.82,21.34-0.29,32.01,0.34c28.32,0.46,56.65-0.28,84.97,0.42v433.97
			c-1.34,3.37-1.66,6.99-2.25,10.54c-0.6-1.28-1.18-2.56-1.76-3.83c-1.11,11.14-1.17,22.34-1.6,33.52
			c-0.43,9.75-2.74,19.22-4.87,28.7c-1.33,9.49-4.48,18.58-6.29,27.97c-1.44,3.88-2.24,7.97-3.79,11.81
			c-1.35,3.03-2.33,6.21-2.71,9.51c-1.6,6.97-4.06,13.67-6.67,20.31c-2.69,9.54-7.16,18.45-10.5,27.76
			c-6.13,14.06-12.84,27.85-20.27,41.26c-2.55,2.71-4.4,5.96-5.41,9.55c-0.54,0.84-1.11,1.67-1.66,2.52
			c-3.15,3.82-5.81,8.02-7.66,12.62c-0.75,1.21-1.47,2.44-2.16,3.69c-1.23,1.5-2.3,3.11-3.26,4.8c-1.91,2.54-3.51,5.3-5.58,7.72
			c-0.3,0.69-0.6,1.39-0.89,2.1c-4.55,4.68-7.82,10.48-11.98,15.53c-0.39,0.31-1.17,0.92-1.56,1.23c-1.25,2.15-2.84,4.06-4.61,5.8
			c-0.21,0.45-0.64,1.35-0.85,1.8c-3.34,3.07-6.08,6.72-9.02,10.16c-5.56,5.53-10.58,11.6-16.38,16.9c-1.1,0.93-1.92,2.11-2.76,3.26
			c-2.22,0.97-4.14,2.47-4.89,4.86c-1.36,0.76-2.69,1.55-3.99,2.4c-1.02,3.75-6.14,3.55-6.74,7.58c-2.64,0.88-4.97,2.38-6.14,5
			c-2.51,0.82-4.81,2.19-5.7,4.82c-4.04,1.19-6.38,4.9-10.13,6.57c-1.48,0.56-2.03,2.08-2.8,3.33c-2.88,0.7-5.17,2.54-6.77,4.99
			c-2.03,0.75-4.02,1.56-5.98,2.46c-0.25,0.61-0.76,1.84-1.01,2.45c-3.02,0.75-6.29,1.65-7.48,4.89c-1.54,0.41-3.08,0.78-4.58,1.26
			c-2.88,0.31-4.61,2.54-6.33,4.57l-0.78,0.24c-1.6,0.26-3.19,0.51-4.78,0.76c-1.05,1.31-2.07,2.65-3.18,3.91
			c-0.48,0.15-1.44,0.45-1.91,0.6c-1.71,0.37-3.42,0.7-5.12,1.04c0.26,0.89,0.53,1.79,0.8,2.69c-1.14,0.28-2.3,0.5-3.44,0.76
			c-2.92,0.35-6.11,0.89-7.18,4.09c-0.85,0.34-1.69,0.67-2.53,1.01c-1.37,0.46-2.72,0.96-4.06,1.47c-0.24,0.64-0.74,1.93-0.98,2.57
			c-2.1,0.32-4.21,0.56-6.29,0.94c-2.53,0.42-5.03,0.9-7.53,1.4c0.66,0.84,1.33,1.68,2.01,2.54c-1.79,0.34-3.59,0.6-5.38,0.94
			c-2.49,0.36-4.97,0.7-7.45,1.06c0.24,0.99,0.49,1.98,0.74,2.98c-4.05,0.8-8.92,0.84-11.45,4.67c-2.62,0.62-5.3,0.95-7.96,1.28
			c-3.44,0.35-6.87,0.74-10.28,1.26c0.75,0.93,1.5,1.85,2.27,2.8c-2.78,0.31-5.56,0.52-8.33,0.87c-3.32,0.35-6.64,0.71-9.95,1.13
			c0.53,0.96,1.07,1.93,1.62,2.91c-3.31,0.39-6.63,0.69-9.93,1.16c-4.66,0.18-9.31,0.47-13.93,1.04c1.63,0.91,3.25,1.83,4.89,2.76
			c-4.77,0.41-9.54,0.55-14.3,1.02c-6.3,0.22-12.6,0.59-18.86,1.36c1.74,0.22,3.48,0.46,5.24,0.7c0.43,0.51,1.29,1.51,1.72,2.01
			c-12.9,0.32-25.76,1.82-38.67,1.32c-13.29-1.32-26.64,0.26-39.94-0.47c-6.98,0-13.96-0.18-20.93,0.14
			c-6.39,2.57-13.27,0.53-19.89,0.63c-7.09-1.33-14.32-1.05-21.46-1.83c-1.83-0.48-3.68-0.89-5.52-1.32
			c2.99-0.41,5.97-0.8,8.96-1.18c-5.93-0.83-11.91-1.23-17.89-1.38c-4.56-0.59-9.16-0.64-13.73-1c1.44-0.88,2.87-1.76,4.3-2.65
			c-4.75-0.87-9.58-1.23-14.4-1.45c-2.84-0.31-5.7-0.44-8.53-0.84c-0.79-0.33-1.57-0.65-2.34-0.98c1.2-0.68,2.4-1.35,3.61-2.01
			c-3.63-0.4-7.27-0.69-10.9-1.04c-2.67-0.41-5.38-0.52-8.05-0.83c0.06-1.15,0.13-2.27,0.2-3.39c-2.91-0.29-5.82-0.54-8.72-0.83
			c-3.91-0.54-8.18-0.59-11.4-3.2c-2.59-2.05-5.94-2.32-9.08-2.73c0.49-0.97,0.99-1.92,1.48-2.88c-2.77-0.4-5.55-0.79-8.32-1.2
			c-2.88-0.53-6.06-0.68-8.31-2.81c-1.99-2-4.85-2.2-7.42-2.88c-2.38-0.55-3.98-2.54-6.02-3.71c-1.89-0.86-3.96-1.2-5.93-1.79
			c0.63-0.88,1.27-1.75,1.91-2.61c-2.25-0.36-4.49-0.7-6.73-1.06c-1.43-0.28-2.85-0.51-4.26-0.8c-0.08-1.13-0.16-2.24-0.23-3.35
			c-1.48-0.18-2.95-0.37-4.42-0.57c-1.47-0.36-2.94-0.69-4.38-1.08c0.02-0.8,0.07-2.39,0.09-3.18c-1.71-0.25-3.43-0.5-5.13-0.76
			c-4.33-0.21-6.46-4.48-10.41-5.55c-2.92-0.73-4.4-3.69-7.2-4.63c-3.84-1.44-6.28-5.13-10.34-6.21c-1.61-2.41-4.27-3.48-6.71-4.77
			c-4.29-3.96-9.2-7.14-13.92-10.52c-2.43-2.78-6.15-4.04-8.17-7.2c-5.83-2.93-9.55-8.71-15.11-12.06
			c-1.35-2.18-3.42-3.65-5.61-4.86c-2.88-3.65-6.45-6.71-9.86-9.85c-3.11-3.51-6.41-6.86-9.81-10.08c-1.18-1.95-2.74-3.59-4.49-5.02
			c-2.6-3.23-5.25-6.44-8.14-9.41c-2.66-3.52-5.52-6.87-8.46-10.15c-3.51-4.96-7.05-9.96-11.01-14.57
			c-3.19-4.99-6.4-10.01-9.99-14.73c-3.11-5.01-6.03-10.14-9.27-15.07c-12.7-21.45-23.37-44.11-31.87-67.54
			c-0.14-4.16-1.2-8.29-4.05-11.43c-3.04-9.04-5.51-18.26-8.21-27.4c-1.98-9.75-5.22-19.25-6.34-29.16
			c-1.34-6.94-3.13-13.81-3.72-20.87c-0.75-6.06-0.42-12.25-1.92-18.2V2.6z M506.52,19.22c-8.26,0.78-16.62,0.73-24.75,2.64
			c-7.89,0.51-15.15,3.76-22.67,5.92c-9.96,4.26-19.84,9.53-27.19,17.68c-1.44,2.01-4.68,2.57-6.12,0.26
			c-7.57-8.36-17.55-14.01-27.93-18.13c-4.37-1.37-8.82-2.44-13.18-3.8c-5.87-1.99-12.17-1.37-18.18-2.58
			c-8.17-0.57-16.37,0.01-24.54-0.45c-107.32-0.27-214.64-0.26-321.94-0.64c-0.3,0.28-0.89,0.84-1.18,1.11
			c0.17,70.41,0.03,140.83,0.12,211.24c0.35,17.33,0.08,34.68,0.18,52.02c0,56,0.06,112.01,0.03,168.01
			c-0.2,7.02,1.45,13.91,1.5,20.91c-0.04,7.51,2.23,14.75,2.73,22.21c4.27,27.49,10.85,54.69,20.49,80.82
			c23.05,64.31,63.79,122.18,116.81,165.29c24.18,19.81,50.76,36.66,78.87,50.32c14.44,7.18,29.49,12.98,44.54,18.68
			c3.99,1.15,8.06,2.11,11.82,3.92c4.39,2.14,9.46,1.98,13.97,3.79c7.85,3.29,16.55,3.46,24.5,6.46c8.16,1.71,16.53,2.42,24.62,4.53
			c7.17,1.8,14.61,1.35,21.86,2.55c8.58,1.23,17.28,0.88,25.88,1.85c12.4,1.32,24.89,1.18,37.29-0.06
			c8.66-0.82,17.39-0.66,26.02-1.86c6.64-1.14,13.49-0.62,20.05-2.34c7.87-2.08,15.99-2.89,23.97-4.34
			c8.02-3.17,16.89-3.3,24.84-6.67c4.55-1.8,9.56-2.04,14.01-4.12c4.97-2.29,10.52-2.96,15.42-5.41c4.4-2.25,9.41-2.9,13.75-5.31
			c37.51-15.61,72.67-37.05,103.29-63.81c19.83-16.81,37.31-36.2,53.35-56.62c4.67-6.95,10.14-13.33,14.53-20.47
			c8.59-12.75,16.32-26.06,23.33-39.74c29.01-55.99,45.07-118.04,51.41-180.59c0.07-34.02-0.08-68.04,0.4-102.07
			c-0.03-35.94,0-71.88,0.2-107.82c0.46-18.72-0.16-37.44,0.2-56.16c-0.51-9.97,0.23-19.93,0.02-29.91
			c-0.19-23.01,0.61-46.02,0.04-69.03c0.41-14.64,0.14-29.3,0.26-43.96c-0.06-4.23,0.29-8.53-0.58-12.71
			c-0.37-0.15-1.11-0.46-1.48-0.61c-81.02-0.29-162.07-0.27-243.1-0.6c-15.99-0.53-32.02,0.22-48-0.75
			C526.16,19.26,516.31,18.32,506.52,19.22z"/>
	</g>
	<path fill="#ECD000" d="M42.45,76.9c108.79-0.17,217.7,0.07,326.53,0.41c8.84-0.12,17.14,3.01,25.72,4.57
		c8.26,2.82,16.43,6.22,23.69,11.16c3.11,2.14,6.17,4.41,9.64,5.97c2.29-0.57,4.17-2.1,6.06-3.45c8.82-7.2,19.35-12.26,30.41-14.87
		c9.16-2.97,18.88-3.78,28.46-3.42c103.65-0.29,207.33-0.25,310.97-0.49c0.36,0.03,1.08,0.1,1.44,0.14
		c0.43,5.87,1.05,11.89-0.17,17.7c-2.24,2.41-6.27,0.43-9.22,0.81c-67.97,0.22-135.96,0.05-203.93,0.21
		c-8.35-0.15-16.71-0.15-25.04,0.31c-8.69-0.18-17.38-0.41-26.05,0.14c-17.32,0.07-34.64,0.02-51.96,0.03
		c-5.55,0.03-11.33-0.37-16.58,1.8c-5.35,2.04-11.09,3.05-16.19,5.72c-4.68,2.18-9.08,4.86-13.62,7.28
		c-4.71,2.49-8.37,6.47-12.74,9.45c-1.55,1.33-3.41-0.05-4.63-1.08c-9.17-7.41-19.84-12.61-30.6-17.26
		c-5.3-1.86-10.77-3.14-16.07-4.94c-8.07-1.69-16.38-0.7-24.55-0.97c-17.68-0.24-35.38,0.56-53.03-0.56
		C215.33,95.7,129.67,95.27,44,95.35c-2.13,0.06-1.78-2.41-2.08-3.85C41.67,86.65,41.52,81.7,42.45,76.9z"/>
	<path fill="#ECD000" d="M42.35,111.55c2.9-0.39,5.79,0.04,8.68,0.2c104.98,0.26,209.98,0.19,314.96,0.25
		c7.02,0.39,14.25,0.06,20.97,2.45c4.12,1.34,8.51,1.79,12.47,3.66c7.54,3.52,15.36,6.72,22,11.83c2.13,1.46,4.38,2.74,6.63,4.02
		c5.23-2.73,9.45-6.99,14.74-9.62c6.91-3.74,13.76-8.09,21.66-9.34c6.46-2.86,13.64-2.74,20.57-3.02
		c103.66-0.01,207.32-0.02,310.98-0.05c2.67,0.03,5.3-0.84,7.98-0.57c1.43,0.3,1.45,1.95,1.65,3.08c0.49,3.48,0.25,7.01-0.28,10.47
		c-42.44-0.48-84.9-0.08-127.35-0.2c-62.69,0.19-125.39,0.16-188.07,0.29c-5.96,1.11-12.27,0.17-17.98,2.49
		c-5.43,2.04-11.28,2.84-16.46,5.53c-8.22,3.6-16.52,7.59-23.11,13.82c-1.38,1.16-2.4,3.12-4.37,3.3
		c-11.05-10.23-24.51-17.8-39.01-21.85c-2.62-0.87-5.16-2.12-7.96-2.31c-6.36-0.52-12.65-1.82-19.05-1.82
		c-104.68,0.03-209.37-0.03-314.04-0.23c-1.8-0.08-3.89,0.52-5.39-0.78C40.6,119.57,42.17,115.37,42.35,111.55z"/>
	<g>
		<path fill="#ECD000" d="M91.53,186.54c0.01-1.7,0.38-4.55,2.48-4.73c46.67,0.07,93.34,0.02,140.01-0.01
			c7.32-0.51,14.64,0.1,21.97,0.03c2.52-0.04,5.05,0.31,7.38,1.32c3.03,1.3,6.37,1.46,9.47,2.53c7.62,3.39,14.8,7.82,20.75,13.72
			c0.73-6.04-0.49-12.22,1.14-18.16c29.09,0.5,58.19,0.83,87.28,0.45c19.41,15.83,38.54,32,57.83,47.98
			c7.3,5.73,13.88,12.34,21.5,17.67c0.52-0.12,1.56-0.34,2.08-0.46c-2.08-7.63-0.24-15.66-0.81-23.45
			c-0.04-12.64-0.06-25.29-0.04-37.93c0.09-1.75,1.25-4.06,3.34-3.74c84.03-0.01,168.06,0.19,252.1,0.13
			c12.22,0.01,24.44,0.02,36.66-0.19c1.71,3.72,1.14,7.86,1.18,11.83c0.05,17.02,0.11,34.05,0.02,51.08
			c-0.23,1.41,0.34,4.05-1.87,3.97c-22,0.18-44.02-0.08-66.02,0.1c-2.26-0.23-1.55,2.39-1.75,3.78c-0.02,41.68-0.5,83.37-0.5,125.05
			c-0.3,5.96,0.03,11.95-0.32,17.91c0.13,1.76-2.08,2.02-3.37,2.09c-25.7-0.18-51.42-0.22-77.12,0.04c-1.1-0.11-3.13-0.14-3.26-1.55
			c0.39-42.8,0.05-85.64,0.21-128.46c-0.06-5.39,0.15-10.77-0.14-16.15c0.01-1.26-0.88-2.26-1.39-3.33
			c-13.98,1.3-28.08-0.06-42.08,0.83c-0.18,0.41-0.53,1.22-0.71,1.63c-0.04,47.01,0,94.03-0.03,141.05
			c-0.06,1.68,0.01,3.39-0.35,5.05c-1.22,0.83-2.71,1.01-4.14,1c-19.66-0.37-39.33-0.08-58.99-0.02c-1.56-0.15-4.5,0.02-4.5-2.22
			c-0.05-19.63-0.08-39.26-0.12-58.89c0.2-1.38-0.47-3.59,1.35-4.11c5.65-0.98,11.53,0.45,17.12-1.14c1.13-2.05,0.58-4.99-2-5.41
			c-21.69-8.31-43.28-16.85-65.01-25.02c-3.97-2.03-8.49-2.73-12.26-5.16c-22.25,9.02-44.73,17.49-66.95,26.6
			c-3.69,1.27-7.43,2.43-10.89,4.24c-1.8,0.72-1.59,3.09-2.38,4.56c5.09,1.17,10.32,0.9,15.5,0.89c1.31-0.1,2.69,1.16,2.52,2.52
			c0.19,20.02-0.08,40.05,0.06,60.08c0.33,1.59-0.7,3.35-2.5,3.16c-22.65-0.36-45.34-0.05-67.99-0.21c-1.23-0.09-2.01-0.7-2.36-1.82
			c0.25-24.54,0.06-49.08,0.04-73.62c-4.51,3.19-8.59,7.01-13.62,9.41c-8.75,4.02-18.34,6.87-28.06,6.32
			c-22.69-0.06-45.38,0.13-68.07,0.04c-3.27,0.03-6.71-0.31-9.72,1.24c0.82,18.82-0.45,37.69,0.13,56.52
			c0.04,2.32-2.79,1.93-4.34,2.03c-21.01-0.4-42.03,0.01-63.04-0.16c-4.52-0.08-9.14,0.65-13.6-0.26c-1.75-0.38-1.25-2.4-1.43-3.69
			C91.96,324.51,91.65,255.52,91.53,186.54z M299.62,189.62c0.47,5.64-0.05,11.3-0.13,16.94c0.13,1.64-0.66,3.09-1.33,4.52
			c-5.04-2.39-7.36-7.72-11.53-11.16c-2.12-1.4-4.27-2.8-5.94-4.74c-2.55-0.93-4.87-2.33-7.34-3.42c-0.3-0.4-0.91-1.2-1.21-1.6
			c-2.91-0.41-5.84-0.77-8.63-1.71l-0.81-1.76c-3.35-0.57-6.75-0.07-10.1,0.22c-4.91-0.39-9.89-0.44-14.8,0.07
			c-3.61,0.88-7.21-0.56-10.85-0.32c-17.55,0.14-35.1-0.24-52.63,0.3c-10.36-1.1-20.81-0.16-31.2-0.36
			c-13.6,0.13-27.21-0.49-40.79,0.35c-2.12-0.86-3.39,1.64-4.93,2.61c0.28,20.32-0.01,40.64,0.14,60.97
			c0.71,7.62-0.39,15.26,0.09,22.89c-0.28,39.27-0.08,78.57,0.09,117.84c0.99,0.48,1.95,1.08,3.04,1.35
			c10.74,0.28,21.48-0.2,32.22-0.19c7,0.59,14-0.35,21,0.19c4.27-0.03,8.6,0.37,12.83-0.32c1.85-0.21,2.12-2.27,2.05-3.76
			c0.09-14.65-0.12-29.3,0.14-43.95c-0.43-3.73,0.56-7.39,0.68-11.1c4.1-0.74,8.27-0.45,12.4-0.47c25.33,0.02,50.65-0.01,75.98,0.01
			c2.49-0.04,5.11-0.08,7.38-1.26c3.7-1.97,7.84-2.82,11.77-4.18c2.84-1.89,5.49-4.12,8.71-5.39c1.54-2.69,4.54-4.05,6.09-6.73
			c0.97-1.34,1.74-3.28,3.78-2.92c0.43,0.07,1.29,0.22,1.72,0.3c2.65-0.89,1.62,2.31,1.9,3.63c0.11,24.93,0.23,49.86-0.04,74.78
			c4.49,2.53,9.77,1.07,14.65,1.2c14.33,0.27,28.67,0.21,43,0.2c1.42-0.04,3.7-0.27,3.7-2.16c0.78-6.3,0.31-12.66,0.43-18.99
			c-0.13-11.04,0.35-22.09-0.43-33.11c-0.65-0.54-1.3-1.07-1.94-1.6c-4.23,0.19-8.5,0.5-12.72,0.1c-1.65-1.5-1.79-4.33-2.84-6.35
			c0.42-2.26,0.99-4.5,1.33-6.77c1.75-0.81,3.66-1.17,5.52-1.68c0.06-0.35,0.18-1.05,0.25-1.41c3.99-1.09,7.84-2.73,12.01-3.13
			c0.07-0.38,0.21-1.16,0.28-1.55c4.29-2.37,9.59-2.1,13.52-5.09c2.59-1.18,5.21-2.42,8.1-2.67c2.52-0.11,4.4-1.89,6.52-3
			c2.54-1.59,5.6-1.84,8.45-2.55c0.25-0.43,0.76-1.3,1.01-1.73c3.88-0.77,7.37-2.89,11.39-3.13c0.23-0.42,0.68-1.27,0.91-1.69
			c3.46-0.81,6.9-2.02,9.76-4.2c0.58-8.99-0.42-17.99,0.25-26.96c0.5-0.84,1.04-1.66,1.61-2.45c3.35-1.48,6.84-0.17,9.7,1.76
			c-0.79,9.06,0.04,18.17-0.39,27.24c3.76,2.52,8.37,3.44,11.96,6.23c3.53,0.57,7.05,1.38,10.02,3.5c2.93,2.34,6.86,1.84,10.1,3.46
			l-0.31,0.79l0.6,0.72l0.9-0.17l0.25-0.8c0.48,0.17,1.45,0.53,1.93,0.7c2.61,2.76,6.79,1.93,9.88,3.77
			c2.12,1.03,3.85,2.99,6.34,3.16c3.15,0.3,6.04,1.64,8.96,2.78c3.94,2.71,8.92,2.84,13.18,4.98c1.25,2.35,4.49,1.63,6.21,3.23
			c1.09,4.36,0.5,8.79-0.88,13.01c-5.67,0.89-11.41-0.23-17.11,0.51c-1.42,5.93-0.89,12.08-0.97,18.13
			c0.11,11.71-0.27,23.44,0.31,35.15c1.45,1.74,4.09,1.6,6.15,1.94c14.35-0.38,28.72-0.31,43.06,0.08c2.67,0.22,5.32-0.42,7.72-1.58
			c1.74-0.65,0.57-2.68,0.73-4.02c0.05-31.87,0.02-63.75,0.03-95.63c-0.14-15.36,0.26-30.73-0.18-46.08
			c0.13-1.59,2.07-1.34,3.19-1.45c12.16,0.19,24.33,0.01,36.49,0.12c4.9,0.51,9.85-1.12,14.69,0.24c0.72,7.38,0.44,14.79,0.49,22.2
			c0.03,41.02-0.03,82.05,0.01,123.07c-0.25,2.53,2.81,3.14,4.74,3.08c21.08-0.35,42.18-0.35,63.26-0.04
			c2.17-0.45,4.32-1.16,6.16-2.44c-1.32-4.78-0.83-9.79-0.86-14.69c0.11-6.99-0.23-14,0.29-20.98c0.23-12.02-0.24-24.06,0.35-36.07
			c-0.04-24.36,0.25-48.72-0.05-73.07c0.15-0.32,0.45-0.95,0.6-1.26c20.8-0.03,41.63-0.16,62.43,0.03c1.98-0.41,4.48,0.01,5.94-1.71
			c1.25-5.21,0.35-10.58,0.5-15.86c0.07-11.36-0.26-22.73,0.17-34.09c0.07-1.44-0.35-2.85-0.86-4.16c0.03-0.45,0.11-1.36,0.14-1.81
			c-90.01-0.01-180.01,0.01-270.02-0.01c-4.43,0.13-9.61-1.04-13.05,2.55l1.31-0.39c-0.78,15.29-0.14,30.6-0.41,45.9
			c0.25,6.63-0.28,13.28,0.25,19.9c0.19,1.4-0.15,2.77-0.73,4.03c-1.23-1.13-2.43-2.28-3.64-3.42c-4.29-0.64-5.77-5.27-9.48-6.88
			c-5.33-4.55-11.01-8.66-16.08-13.54c-2.14-1-3.9-2.49-5.28-4.4c-5.34-3.8-9.84-8.69-15.36-12.34c-2.79-2.84-6.09-5.07-8.93-7.85
			c-2.15-1.14-4.3-2.42-5.21-4.81c-1.54-0.76-3.24-1.37-4.31-2.78c-2-2.49-5.04-3.95-6.64-6.79c-2.92-1.15-5.84-2.62-7.32-5.56
			c-2.01-1.09-4.03-2.2-6.23-2.86l1.59-0.35c-5.44-0.62-11.02-0.82-16.41,0.35c-10.76-0.82-21.65-0.95-32.39,0.2l-1.12-0.93
			c-3.53,0.45-7.07,1.13-10.61,0.31c-4.49,0.14-8.99,0.1-13.48,0.02c-0.84-0.65-1.68-1.3-2.52-1.94
			C302.44,186.43,301,188,299.62,189.62z M429.42,266.11c-1.26,1.52-2.27,3.28-2.04,5.33c0.1,7.23-0.3,14.5,0.6,21.7
			c1.09-0.93,2.32-1.93,1.96-3.55C429.61,281.77,430.22,273.91,429.42,266.11z M298.15,393.66c-2.46,1.21,1.12,3.34,2.23,1.57
			C301.3,393.9,299.12,393.01,298.15,393.66z M678.64,394.68c-0.3,1.43,2.14,1.63,2.72,0.58
			C681.64,393.82,679.19,393.62,678.64,394.68z"/>
	</g>
	<g>
		<path fill="#ECD000" d="M170.27,239.42c4.87-0.94,9.79,0.06,14.69-0.09c7.34-0.07,14.69,0.18,22.03-0.28
			c10.33-0.46,20.66,0.84,30.99-0.03c3.38-0.32,7.05,0.6,9.08,3.52c2.58,2.11,4.56,4.83,5.55,8.04c0.94,3.86,3.64,7.72,2.14,11.81
			c-1.89,4.28-2.39,9.74-6.87,12.27c-0.19,0.44-0.57,1.32-0.75,1.75c-2.44,1.55-5.25,2.41-8.14,2.28c-19.33-0.03-38.66,0-57.98-0.03
			c-3.71-0.1-7.75,1.09-11.14-0.96c-1.2-9.04,0.12-18.16-0.46-27.24C169.01,246.75,169.84,243.09,170.27,239.42z M177.36,244.09
			c-1.41-0.19-2.35,1.03-2.18,2.37c-0.11,7.67,0.09,15.34-0.02,23.01c-0.15,1.93-0.08,5.15,2.77,4.43
			c19.35,0.05,38.7-0.07,58.06,0.05c2.58-0.13,5.69,0.33,7.62-1.81c8.9-6.83,7.18-22.48-2.5-27.77c-2.31-0.7-4.77-0.43-7.14-0.5
			C215.1,244.06,196.21,243.62,177.36,244.09z"/>
	</g>
	<path fill="#ECD000" d="M730.61,271.94c4.77-0.7,9.78-1.74,14.57-0.81c1.02,1.75,1.66,3.69,2.41,5.58
		c-0.86,0.93-1.44,2.21-2.61,2.78c-6.2,1.68-12.92,0.61-19,2.68c0.39,2.78,0.55,5.59,1.01,8.37c-0.08,1.67,1.76,1.8,2.98,1.97
		c5.11,0.56,10.08-1.24,15.13-1.57c4.39,1.22,4.71,8.78,0.01,9.65c-13.05,0.63-26.09,1.52-39.09,2.74
		c-5.05,0.52-3.97-5.48-3.62-8.65c5.36-2.5,11.84,0.1,17.28-2.37c-0.02-3.48-0.55-6.93-0.85-10.38c-5.75-0.5-11.44,1.53-17.11,0.92
		c-1.23-2.79-0.55-5.99-0.59-8.94C710.94,273.12,720.92,274.14,730.61,271.94z"/>
	<path fill="#ECD000" d="M731.59,309.04c3.51-1.92,7.75-1.41,11.52-0.69c9.08,3.89,10.8,18.44,2.71,24.18
		c-3.65,1.93-7.67,3.22-11.82,3.36c-7.62,0.49-15.42,1.72-22.96-0.02c-7.99-3.09-10.49-13.83-6.65-20.99
		c2.56-3.59,6.94-5.06,10.87-6.64c2.31,2.14,2.88,5.39,3.01,8.4c-2.24,2.05-5.73,1.94-7.96,4.12c-0.01,1.11-0.01,2.22,0,3.33
		c1.94,2.27,4.53,4.02,7.68,3.73c8.19-0.23,17.05,0.48,24.37-3.9c0.29-1.17,0.6-2.32,0.92-3.47c-0.65-1.15-1.28-2.27-1.92-3.4
		c-2.68-0.35-5.48,0.12-8.06-0.7C732.46,313.98,732.1,311.49,731.59,309.04z"/>
	<path fill="#ECD000" d="M395.63,353.85c3.48-11.41,14.41-20.27,26.32-21.02c17.05-1.4,33.08,14.5,31.49,31.62
		c-0.66,13.34-11.57,24.57-24.4,27.19c-0.38,33.99-1.1,67.98-1.35,101.97c0.37,3.65-4.33,3.06-6.75,3.35
		c-1.87-2.01-0.68-4.99-0.99-7.45c-0.64-12.01,0.46-24.04-0.52-36.05c-0.41-14.97-0.38-29.96-0.2-44.94
		c-0.09-5.67,0.15-11.37-0.8-16.98c-7.25-1.85-14.34-5.62-18.49-12.04C394.33,372.32,393.39,362.46,395.63,353.85z"/>
	<g>
		<path fill="#ECD000" d="M726.54,346.83c7.03-2.2,14.3-3.47,21.57-4.62c1.53-0.59,3.03,0.54,2.96,2.17
			c0.1,2.16,0.01,4.38-0.71,6.44c-3.23,2.09-7.36,1.7-11.03,2.16c0.18,3.03-0.86,6.36,0.21,9.21c2.91,2.02,6.97,1.22,10.23,2.61
			c1.59,2.57,1.49,6.17,0.18,8.86c-9.89-0.31-19.17-4.74-28.86-6.57c-5.02-1.62-10.57-1.73-15.1-4.68c-1.89-0.9-0.88-3.3-1.1-4.92
			c-0.16-2.89,0.21-6.52,3.57-7.35C714.47,348.99,720.49,347.81,726.54,346.83z M713.65,356.39c3.01,2.34,6.74,3.04,10.49,2.82
			c2.63,0.98,5.44,1.23,8.23,1.02c-0.25-1.76,0.17-3.73-0.94-5.26c-2.17-0.28-4.32,0.28-6.41,0.74l-0.27,0.12
			C721.06,355.14,717.31,355.98,713.65,356.39z"/>
	</g>
	<g>
		<path fill="#ECD000" d="M754.22,353.77c1.53-0.23,3.11-0.31,4.66-0.04c2.12,1.02,1.31,3.91,1.59,5.83
			c0.68,3.67-4.24,3.02-6.5,2.66c-2.2-0.41-1.15-3.09-1.32-4.64C752.94,356.39,752.59,353.94,754.22,353.77z M755.21,356.8"/>
	</g>
	<path fill="#ECD000" d="M707.43,384.72c-3.35-1.78-2.5-6.33-0.69-8.96c8.71,1.25,17.53,1.16,26.3,1.61
		c5.64,1.04,11.4,1.05,17.08,1.81c0.62,2.7,2.33,7.34-1.08,8.7c-6.47-0.22-12.95-0.7-19.42-1.01c-0.31,3.66-0.61,7.34-0.51,11.03
		c5.77,0.86,11.63,0.74,17.42,1.35c4.2,0.72,4.17,8.1,0.02,8.93c-1.83,0.32-3.66-0.21-5.46-0.41c-7.02-1.22-14.22-0.31-21.22-1.69
		c-4.96-0.85-10.12-0.12-14.99-1.43c-1.95-2.09-2.69-6.75,0.16-8.32c5.68-0.14,11.36,0.73,17.06,0.54
		c0.23-3.65,0.48-7.29,0.53-10.95C717.57,385.37,712.45,385.46,707.43,384.72z"/>
	<path fill="#ECD000" d="M379.1,406.74c3.49-2.04,6.73-4.82,10.9-5.29c3.74-0.84,9.32-1.23,11.27,2.87
		c1.81,3.21,2.24,7.22,5.17,9.74c2.14,2.63,5.71,2.56,8.75,3.2c0.13,11.73,0.09,23.47,0.14,35.21c-0.18,1.28,0.35,3.53-1.38,3.93
		c-2.53,0.93-5.27,0.91-7.92,1.01c-8.31,0.14-16.76,0.56-24.95-1.14c-4.88-1.83-9.29-5.17-12.33-9.42
		c-7.93,2.6-17.68,5.36-25.13,0.1c-3.3-1.66-4.68-5.25-7.04-7.84c-3.89-1.52-8.52-0.64-12.05-3.17c-3.08-2.32-4.59-6.01-6.91-8.96
		c-4.32-0.82-9.02,0.12-12.96-2.27c-3.5-2.18-8.2-5.03-7.38-9.85c6.49-1.26,13.13-0.82,19.7-1.17c9.17-0.56,18.39-0.37,27.5-1.61
		c6.82-0.57,13.85,0.2,20.44-2.04C369.52,408.37,374.86,409.49,379.1,406.74z"/>
	<path fill="#ECD000" d="M444.01,410.48c1.32-3.3,2.05-7.97,6.09-8.99c5.82-1.56,11.91,0.75,16.64,4.15
		c4.77,3.55,10.91,2.87,16.32,4.6c7.96,2.36,16.38,0.98,24.49,2.35c13.77,0.76,27.57,1.55,41.37,1.31c0.73,1.36,2.26,2.87,1.3,4.53
		c-2.25,3.59-6.01,6.16-10.04,7.38c-3.38,1.12-7.02,0.59-10.47,1.24c-1.85,3.1-3.33,6.59-6.27,8.85c-3.78,2.38-8.48,2.17-12.63,3.44
		c-3.04,4.65-7.04,9.28-12.82,10.29c-5.16,0.55-10.55,0.21-15.38-1.78c-1.28-0.27-3.19-1.66-4.16-0.15
		c-3.69,4.49-8.69,8.43-14.62,9.21c-8.93,0.97-17.93,0.65-26.89,0.3c-1.99,0.05-4.46-1.29-4.05-3.59
		c0.08-12.1-0.23-24.19-0.03-36.28C437.45,416.99,442.02,414.86,444.01,410.48z"/>
	<g>
		<path fill="#ECD000" d="M126.99,411.66c1.67-1.78,6.66-2.43,7.02,0.82c0.38,4.65,0.09,9.33,0.2,14c-0.07,4.54,0.57,9.17-0.7,13.6
			c0.58,5.18,0.89,10.4,1.73,15.56c0.65,3.23-0.09,6.57-1.35,9.57c-1.8,3.43-6.53,2.96-8.85,5.9c3.01,0.03,5.9-0.84,8.84-1.24
			c3.67,0.87,2.85,5.56,2.76,8.39c-6.12,2.07-12.58,2.82-18.68,4.93c-6.2,1.63-13.29,1.91-18,6.82c0.26,2.57,1.49,4.83,2.86,6.98
			c4.91,0.98,9.57-1.07,14.33-1.86c7.23-1.83,14.35-4.73,21.87-5.02c4.14,0.71,1.63,6.17,3.72,8.78c0.73-1.23,1.46-2.46,2.17-3.69
			c1.29,0.1,2.57,0.29,3.84,0.58c1.33,1.79,1.58,4.66,4.13,5.2c3.12,0.85,3.85,4.65,3.97,7.45c-1.64,2.32-3.59,4.63-5.78,6.45
			c-2.32,1.32-2.59-1.96-2.61-3.44c-0.28-3.41,2.79-6.02,2.35-9.5c-2.76,0.76-5.66,2.02-8.54,1.14c-1.9-1.1-3.34-2.82-5.08-4.11
			c-5.84,0.38-11.4,2.41-16.95,4.13l-0.26,0.09c-6.37,2.02-13.29,4.52-19.95,2.26c-5.09-3.06-6.26-9.51-7.63-14.82
			c-0.9-3.27,1.04-6.36,2.82-8.93c7.68-5.97,17.65-6.41,26.69-8.87c1.67-0.1,2.73-0.94,3.19-2.51c-3.76-0.1-7.13-1.58-10.19-3.66
			c-2.62,0.66-3.02,4.58-5.95,4.66c-5.83,0.45-11.42,2.11-17.04,3.62c-0.65-2.72-1.68-5.39-1.66-8.21
			c4.12-2.84,9.16-3.35,13.97-3.97c5.31-0.36,5.64-7.42,3.58-10.97c-5.77-0.64-11.54,0.79-17.13,2.12c-1.44-1.89-3.33-3.92-2.9-6.51
			c0.18-2.12,2.58-2.92,4.32-3.41c4.95-0.9,10.02-0.83,14.98-1.65c6.61-1.36,13.56-0.41,19.98-2.79c-0.12-3.14-0.07-6.28,0.04-9.42
			c-5.25-1.51-10.75-0.41-16.11-0.5c-7-0.04-14,0.3-20.99,0.25c-1.95-1.85-1.95-4.89-1.95-7.39c0.8-0.78,1.77-1.16,2.89-1.16
			c11.74-0.34,23.6,0.55,35.24-1.32C126.74,417.25,126.27,414.36,126.99,411.66z M115.38,450.27c0.63,3.29,0.44,7.23,3.07,9.71
			c2.6,1.86,6.61,1.09,8.43-1.52c2.32-2.37,0.56-5.85,0.5-8.7C123.38,448.91,119.37,449.94,115.38,450.27z"/>
	</g>
	<g>
		<path fill="#ECD000" d="M702.45,410.77c2.09-1.34,4.66-0.59,6.98-0.57c-0.02,3.02-0.22,6.04-0.12,9.07
			c8.54,2.94,17.67,2.13,26.53,2.84c3.31,0.5,6.67,0.41,10.02,0.64c2,1.65,1.29,4.6,1.31,6.87c0.15,1.53-1.84,2.02-3,2
			c-11.43,0.05-22.71-2.16-34.12-2.58c-0.46,0.31-1.38,0.92-1.84,1.23c-0.45,2.44,0.38,5.77-2.08,7.34
			c-1.72,1.35-4.25,0.43-5.51-1.12C700.92,427.91,701.61,419.32,702.45,410.77z M743.27,428.85"/>
	</g>
	<path fill="#ECD000" d="M698.29,461.73c3.56-1.29,7.6-1.42,11.29-0.59c1.84,0.32,1.09,2.42,0.76,3.66
		c-0.82,1.95-1.43,5.36-4.31,4.59c-2.77-0.62-5.05,0.78-6.77,2.81c0.77,1.75,1.24,3.95,3.16,4.84c3.58,1.95,7.43,3.72,11.59,3.82
		c5.05,0.21,9.98,2.36,15.07,1.51c3.06-0.37,4.95-4.39,2.98-6.88c-2.44-2.14-6.83-1.6-8.18-5.02c-0.73-2.6,1.19-4.73,2.73-6.55
		c3.7,1.51,8.23,1.76,10.95,5.04c6.29,6.04,2.52,16.87-3.65,21.52c-5.77,1.69-11.86,0.55-17.75,0.33
		c-6.33-1.53-12.87-2.77-18.69-5.8C690.15,479.21,691.65,467.43,698.29,461.73z"/>
	<g>
		<path fill="#ECD000" d="M375.93,465.56c7.42-2.57,15.36-1.53,22.96-0.56c6.3,1.07,11.68,5.52,14.42,11.22
			c1.72,3.4,3.44,8.83-1,10.92c-1.79-0.07-3.82-0.96-5.43,0.2c-3.87,2.73-8.78,0.75-12.61-1.03c-5.18-1.86-9.08-6.87-14.97-6.61
			c-1.27,1.85-2.39,3.79-3.38,5.81c3.41,4.74,8.62,7.95,13.93,10.18c4.28,2.13,9.36,0.37,13.59,2.66c0.08,0.53,0.24,1.6,0.32,2.13
			c-4.95,2.08-10.52,3.35-14.29,7.48c-2.39,1.89-4.66,5.89-8.23,4.33c-9.45-3.17-17.12-11.18-20.03-20.69
			C358.43,480.8,365.07,468.51,375.93,465.56z M398.07,471.57c0.09,0.81,0.27,2.42,0.36,3.23c1.38-0.79,2.64-1.77,3.23-3.31
			C400.77,471.51,398.97,471.55,398.07,471.57z"/>
	</g>
	<g>
		<path fill="#ECD000" d="M435.97,472.36c3.29-3.41,7.32-6.52,12.14-7.27c8.99-1.47,18.87-2.19,27.22,2.16
			c7.57,4.1,11.88,12.84,11.42,21.31c-1.33,6.71-5.69,12.43-10.76,16.85c-5.6,4.99-12.71,7.88-19.73,10.22
			c-12,1.99-23.86,5.02-36.05,5.62c-5.72,1.32-12.78,1.85-16.15,7.4c-2.31,3.43,0.14,7.68,2.17,10.62c2.23,3.32,5.9,5,9.14,7.07
			c-0.26,4.04-4.94,4.85-7.68,6.84c-3.55,1.54-6.61,5.14-10.63,4.99c-6.58-3.25-12.62-8.16-16.07-14.75
			c-2.2-7.22-2.05-15.11,0.78-22.12c4.43-8.02,12.46-13.21,20.85-16.35c7.85-2.71,16.1-4.2,24.36-4.89
			c7.8,0.24,15.28-2.25,22.94-3.27c6.47-1.07,12.5-3.78,17.92-7.42c1.18-1.13,2.1-2.49,3.11-3.76c-0.84-2.47-2.04-5.56-5.08-5.73
			c-4.34,0.04-7.26,3.89-11.05,5.49c-4.85,2.28-11.07,5.36-15.87,1.25c-2.41,0.66-5.65,1-6.4-2.13
			C432.47,480.23,433.54,475.9,435.97,472.36z M447.31,471.44c-1.86,0.48-1.04,3.55,0.82,2.98
			C450.01,473.97,449.18,470.78,447.31,471.44z"/>
	</g>
	<g>
		<path fill="#ECD000" d="M694.47,492.03c5.6-0.9,10.94,1.46,16.32,2.59c5.84,1.19,11.38,3.65,16.53,6.59
			c4.14,2.88,5.05,8.36,3.66,12.97c-1.27,4.6-2.78,10.59-8.07,11.96c-3.82,1.67-7.88,0.35-11.77-0.18
			c-5.55-0.62-10.7-2.89-15.96-4.58c-4.27-1.16-7.97-3.99-10.4-7.66c-2.72-5.29-0.2-11.25,2.2-16.14
			C688.77,495.04,691.38,492.75,694.47,492.03z M691.52,506.49c0.05,3.1,3.03,4.97,5.62,5.95c4.09,1.99,8.63,2.55,12.92,3.95
			c4.03,1.27,8.36,1.53,12.5,0.55c0.52-2.29,1.98-5.01,0.31-7.16c-4.14-4.26-10.39-4.69-15.78-6.34c-3.66-0.78-7.23-2.96-11.06-2.24
			C694.05,502.35,691.26,503.78,691.52,506.49z"/>
	</g>
	<g>
		<path fill="#ECD000" d="M127.22,503.11c1.9-0.26,3.8-0.5,5.71-0.64c2.52-0.13,5.37-0.11,7.42,1.59c5.04,3.8,6.87,10.56,6.82,16.63
			c-0.24,1.33,1.59,1.3,2.37,1.87c1.17-1.46,2.02-3.96,4.28-3.83c2.69,0.31,2.79,3.64,3.62,5.63c-1.98,1.02-3.95,2.03-5.92,3.08
			c-2.13-0.61-4.22-1.41-6.41-1.8c-6.05,6.2-14.67,8.85-22.8,11.18c-4.37,1.64-9.35,3.12-13.88,1.21c-5.74-3.38-8.6-10.1-9-16.53
			c-0.02-4.6,3.8-7.82,7.16-10.34c4.79-2.27,9.79-4.23,14.94-5.52C123.56,505.12,125.44,504.19,127.22,503.11z M107.74,521.21
			c-0.07,1.55-0.14,3.11-0.21,4.68c1.65,1.51,2.84,4.27,5.5,3.92c1.66,0.04,3.33-0.27,4.9-0.83c6.94-2.86,14.37-4.66,20.67-8.91
			c1.33-1.14,0.74-3.24,1.2-4.77c-1.96-2.24-4.47-5.15-7.83-3.75C123.73,514.31,115.23,516.66,107.74,521.21z"/>
	</g>
	<g>
		<path fill="#ECD000" d="M733.23,513.72c2.09-1.79,5.15,1.17,6.65,2.84c-0.54,2.41-1.97,6.88-5.21,5.33
			c-1.62-0.46-3.39-1.01-4.37-2.48C729.87,517.04,731.84,515.32,733.23,513.72z M735.26,517.8"/>
	</g>
	<path fill="#ECD000" d="M454.09,520.06c3.01-0.97,6.99-3.34,9.42,0c3.4,5.06,6.05,11.43,4.19,17.59
		c-2.4,9.79-10.7,16.67-19.14,21.39c-7.38,3.18-14.91,6.06-22.49,8.75c-5.63,1.79-10.54,5.17-15.57,8.17
		c-0.56,2.35-1.64,5.03-0.25,7.31c1.49,1.95,3.37,3.62,4.25,5.98c-4.29,2.18-8.83,4.08-12.39,7.42c-1.07,0.7-2.24,2.38-3.68,1.49
		c-4.7-5.24-9.54-11.26-9.83-18.6c0.56-8.57,6.9-15.37,13.84-19.75c8.13-5.82,17.46-9.56,26.6-13.46
		c5.39-1.83,10.86-5.14,13.49-10.36c2.27-4.23-1.65-8.03-2.57-12.04C444.75,522.99,449.54,521.9,454.09,520.06z"/>
	<path fill="#ECD000" d="M678.04,526.52c4.2-3.97,10.47-4.91,15.57-2.08c0.52,3.48-1.54,6.47-4.22,8.45
		c-4.11-2.88-10.18,1.28-8.78,6.06c2.3,3.52,6.36,5.49,10.3,6.69c5.84,2.16,11.58,5.71,18.01,5.38c3.26-0.23,3.62-4.06,3.56-6.59
		c-2.34-2.63-4.99-5.33-8.65-5.83c-1.48,2.07-4.26,5.49-6.86,2.92c-2.66-1.69-0.78-4.82,0.04-7.02c1.18-2.43,1.74-5.99,4.99-6.41
		c7.3,1.85,13.72,6.03,20.91,8.23c-0.55,2.87-1.48,5.85-4.32,7.24c2.07,5.23-0.69,10.49-4.43,14.11c-2.94,3.48-8.1,2.6-12.08,2.07
		c-8.23-2.84-16.67-5.49-24.02-10.29c-3.36-2.5-6.08-6.45-5.55-10.81C673.23,534.19,675.32,530.07,678.04,526.52z"/>
	<g>
		<path fill="#ECD000" d="M418.76,525.94c1.23-1.79,4.13-1.22,6.09-1.62c0.46,6.37,0.74,12.83-0.12,19.18
			c-0.39,2.8-4.16,2.26-6,1.29C418.09,538.55,417.73,532.15,418.76,525.94z M422.09,526.91"/>
	</g>
	<path fill="#ECD000" d="M146.15,531.66c0.88-0.62,1.98-1.04,3.03-0.56c1.84,2.22,3.1,4.84,4.51,7.35
		c-5.52,6.74-11.25,13.33-17.33,19.57c-0.4,0.65-1.22,1.96-1.62,2.62c7.85-2.78,14.58-8.07,22.24-11.26
		c3.33,0.28,5.36,4.39,4.35,7.39c-1.8,2.1-4.55,2.96-6.95,4.17c-6.6,3.39-13.12,6.94-19.86,10.05c-3.77,1.83-7.37,4.3-11.55,5.07
		c-2.67-0.08-4.24-3.19-4.48-5.54c-0.62-3.49,2.91-5.38,4.67-7.83c5.32-6.78,11.59-12.7,17.56-18.89
		c-6.54,4.03-13.14,7.98-19.99,11.45c-2.59,1.31-4.96,3.22-7.91,3.67c-2-2.26-3.14-5.15-3.8-8.06c8.74-3.85,16.89-8.88,25.52-12.96
		C138.32,535.64,142.46,534.06,146.15,531.66z"/>
	<path fill="#ECD000" d="M668.14,550.83c4.97,0.64,9.11,3.82,13.48,6.05c8.72,4.58,17.3,9.44,26.04,13.98
		c1.94,2.58-0.72,6.68-2.68,8.66c-9.5,1.35-18.74-2.13-28.12-2.9c0.72,2.99,4.11,3.35,6.38,4.68c5.42,2.82,11.73,4.65,15.99,9.23
		c-0.58,2.57-2.4,5.18-4.42,6.74c-12.87-6.93-26-13.77-38.95-20.71c0.6-2.49,0.84-5.45,3.11-7.08c1.48-1.48,3.67-0.72,5.5-0.62
		c5.81,0.96,11.91-0.37,17.52,1.85c3.33,1.04,6.84,1.2,10.32,1.04c-2.04-1.58-4.4-2.68-6.86-3.44c-7.02-2.32-13.39-6.15-19.81-9.73
		C665.08,555.82,667.39,553.38,668.14,550.83z"/>
	<path fill="#ECD000" d="M445.41,564.01c1.28-0.55,2.89-1.18,3.95,0.15c4.68,5.24,8.92,11.95,8.1,19.29
		c-0.34,6.54-5.24,11.58-10.25,15.22c-8.4,5.78-18.95,6.64-27.9,11.24c-2.62,1.65-5.81,3.32-6.71,6.53
		c-0.39,3.32,2.67,5.57,3.07,8.67c-3.26,1.87-6.89,2.96-10.23,4.66c-1.82,1.22-3.99-0.02-5.01-1.66c-2.47-3.46-5.38-7.11-5.25-11.6
		c-0.52-6.6,3.98-12.12,8.38-16.49c4.05-2.86,8.3-5.78,13.25-6.8c3.57-0.99,6.66-3.25,10.33-3.95c3.65-0.56,6.84-2.78,9.13-5.61
		c2.21-2.71,0.63-6.61-1.59-8.78c-1.18-1.67-4.04-3.02-2.88-5.43C436.46,567.96,441.07,566.3,445.41,564.01z"/>
	<path fill="#ECD000" d="M158.51,565c2.29-0.95,4.61,0.33,6.57,1.44c5.01,3.12,8.39,8.54,9.53,14.28c0.36,5.01-3.19,9.07-6.72,12.14
		c-2.78,0.91-4.02-2.48-4.92-4.47c-1.39-2.92,2.04-4.57,3.13-6.84c0.69-3.19-1.6-7.05-5.04-7.11c-4.06-0.14-7.11,2.87-10.35,4.83
		c-4.48,3.11-9.53,5.55-13.21,9.67c-1.74,2.01-0.47,4.65,0,6.89c3.82,1.51,8.09,0.76,11.53-1.35c0.31-0.66,0.59-1.33,0.85-2
		c-3.71-2.5-0.63-6.49,2.55-7.52c2.51,4.13,7.6,7.29,7.52,12.59c-4.9,3.85-10.5,6.7-15.47,10.46c-1.57,1.06-4.16,2.6-5.67,0.68
		c-1.84-1.62-1.64-4.16-1.26-6.32c-4.12,0.09-6.8-3.54-8.28-6.94c-1.57-3.73-1.85-8.5,0.9-11.77c3.85-4.87,9.32-8.12,14.43-11.52
		C148.82,569.04,153.62,566.81,158.51,565z"/>
	<path fill="#ECD000" d="M419.4,574.56c0.46-2.28,4.19-3.03,5.19-0.73c0.45,3.51,0.41,7.11,0.1,10.64
		c-0.34,2.46-3.51,1.54-5.22,1.66C419.02,582.29,418.94,578.39,419.4,574.56z"/>
	<path fill="#ECD000" d="M638.44,602.61c2.76-2.63,4.65-6.09,7.59-8.51c3.19-1.05,5,2.53,7.16,4.18
		c9.25,7.76,17.92,16.22,27.47,23.63c0.12,2.57-1.72,4.94-3.66,6.46c-3.18,2.04-4.86-2.18-7.06-3.67
		c-6.7-5.05-12.31-11.32-18.71-16.69c-0.35,3.14,2.4,5.03,4.03,7.28c4.13,4.59,7.28,9.93,11.18,14.69c1.25,1.77,2.8,3.48,3.35,5.64
		c0.29,3.33-4.22,4.24-6.46,2.68c-5-3.16-10.46-5.46-15.47-8.6c-4-2.14-7.59-5.36-12.22-6c2.01,2.42,4.39,4.51,6.95,6.33
		c6.35,4.45,12.07,9.73,17.71,15.02c1.52,3.18-2.98,5.34-4.46,7.78c-3.46-2.2-6.13-5.37-9.25-7.98
		c-7.55-6.43-14.89-13.1-22.43-19.54c-1.03-1.01-2.31-2.14-2.08-3.73c2.31-2.69,4.45-5.56,7.04-7.97c4.02-1.35,7.35,2.43,10.79,3.96
		c4.62,1.89,8.54,5.05,13.07,7.1c-0.56-3.58-3.75-5.67-5.63-8.51C644.37,611.66,640.35,607.73,638.44,602.61z"/>
	<path fill="#ECD000" d="M441.95,605.47c1.57-0.83,3.44-2.74,5.22-1.21c2.45,3.63,3.93,7.93,4.57,12.25
		c-0.38,5.74-3.58,11.31-8.67,14.12c-6.57,5.31-15.86,4.45-22.7,9.18c-2.98,1.97-2.99,6.04-1.59,9c0.74-1.98,1.46-3.95,2.15-5.94
		c2.03,0.53,3.38,2.05,2.58,4.19c-2.9,2.44-6.29,4.24-9.25,6.61c-1.64,1.45-4.21,2.3-6,0.62c-3.66-3.44-7.22-7.68-7.82-12.85
		c1.21-3.5,3.4-6.97,6.76-8.75c6.96-3.63,14.97-4.49,21.97-8.03c2.55-1.28,3.8-3.94,5.26-6.23c-0.62-3.08-4-6.23-2.5-9.28
		C435.37,608.23,438.94,607.5,441.95,605.47z"/>
	<g>
		<path fill="#ECD000" d="M183.59,614.11c3.1-2.5,5.95-5.35,9.47-7.3c4.86,3.36,7.78,8.69,11.62,13.06
			c3.37,3.98,3.03,10.12-0.38,13.94c-5.67,6.46-12.68,11.61-20,16.04c-3.96,2.58-10.04,3.69-13.63-0.07
			c-4.53-4.3-8.34-9.31-12.17-14.22c0.39-1.86,2.2-2.9,3.46-4.15c3.69-2.94,7.35-5.91,10.89-9.02c-0.08-0.78-0.24-2.32-0.32-3.09
			C176.21,617.57,180.39,616.78,183.59,614.11z M183.8,625.05c0.98,1.11,2,2.21,2.83,3.46c-0.38,2.7-2.77,4.35-5.4,4.25
			c-0.87-0.93-0.98-3.61-2.8-2.79c-3.47,2.01-6.45,4.75-9.36,7.5c1.98,1.99,3.75,4.39,6.34,5.63c2.79,0.58,5.01-1.63,7.19-2.98
			c5.33-3.98,11.45-7.45,14.8-13.44c1.99-3.44-1.8-6.44-3.39-9.18C190.17,619.37,187.11,622.41,183.8,625.05z M183.16,629.7"/>
	</g>
	<path fill="#ECD000" d="M420.25,612.89c1.31-0.59,2.83-0.39,3.83,0.7c0.69,3.52,0.19,7.57-1.99,10.5c-0.48-0.12-1.44-0.38-1.92-0.5
		C419.74,620.11,418.9,616.2,420.25,612.89z"/>
	<g>
		<path fill="#ECD000" d="M604.75,640.52c2.04-2.67,4.53-5.06,7.32-6.94c1.65-1.1,3.56-0.12,4.91,0.98
			c6.55,5.2,13.59,9.73,20.32,14.69c4.68,3.46,9.89,6.22,13.98,10.44c-2,2.12-4.13,5.04-7.29,5.09c-3.34-1.25-5.96-3.78-8.85-5.77
			c-2.09,1.98-4.23,3.91-6.45,5.74c0.93,3.86,4.23,6.73,4.62,10.74c-1.04,2.2-3.13,3.77-5.39,4.57c-3.67-0.66-4.32-4.92-5.92-7.66
			C616.43,661.68,610.3,651.25,604.75,640.52z M616.96,645.33c1.72,4.53,4.51,8.55,7.13,12.6c1.87,0.28,3.13-1.78,4.64-2.64
			c-0.08-0.48-0.24-1.44-0.32-1.92C624.46,650.87,621.03,647.64,616.96,645.33z"/>
	</g>
	<g>
		<path fill="#ECD000" d="M216.85,636.4c1.03-0.79,2.66-1.92,3.75-0.52c2.19,1.91,4.3,3.93,6.54,5.78c0.11,0.73,0.31,2.18,0.41,2.91
			c-6.68,9.96-12.26,20.62-18.89,30.63c-1.5,2.2-2.73,4.58-3.67,7.08c-3.68,0.37-5.97-3.03-7.64-5.78c1.13-3.63,3.88-6.47,5.95-9.58
			c-2.38-2.1-4.42-4.82-7.32-6.19c-3.47,1.57-6.29,4.35-9.93,5.65c-1.75-1.91-3.95-3.51-5.11-5.88c0.1-1.31,1.51-1.8,2.38-2.51
			C194.36,650.57,206.04,644.17,216.85,636.4z M212.47,647.76l0.78,0.55c-3.63,2.58-7.32,5.12-10.67,8.06
			c1.47,1.34,2.94,2.66,4.47,3.94c2.72-3.53,5.02-7.36,7.57-11.02l0.41,0.3c1.74-1.64,3.03-3.64,2.92-6.12
			C216.05,644.81,214.24,646.25,212.47,647.76z"/>
	</g>
	<path fill="#ECD000" d="M431.96,639.4c3.28-1.02,6.57-2.11,9.93-2.84c5.32,1.42,5.2,8.35,2.25,11.98
		c-8.45,10.88-21.61,16.71-34.44,20.68c-4.37,1.87-9.06,3.49-13.88,3.01c2.27-5.06,8.29-6.55,12.58-9.44
		c6.74-4.38,14.2-8.19,19.3-14.56C430.22,645.82,428.39,641.01,431.96,639.4z"/>
	<path fill="#ECD000" d="M590.39,654.52c1.29-2.58,3.31-5.7,6.48-5.9c8.8,10.98,16.48,22.88,25.24,33.92
		c3.57,4.83-6.45,9.54-8.44,4.31c-3.07-4.38-6.1-8.81-9.68-12.79c-2.9,2.31-5.89,4.49-8.99,6.52c3.81,5.35,8.04,10.44,11.89,15.75
		c-1.11,2.57-3.36,4.74-5.94,5.82c-2.6-0.15-3.21-3.29-4.74-4.92c-7.08-9.52-13.72-19.36-20.93-28.78c-0.73-1.15-1.05-2.49-1.5-3.73
		c2.49-1.06,5.64-4.78,8.24-2.15c3.22,3.52,5.58,7.71,8.37,11.57c0.47-0.02,1.39-0.06,1.86-0.08c2.52-2.11,5.67-3.71,7.42-6.58
		C596.96,662.89,593.11,659.09,590.39,654.52z"/>
	<path fill="#ECD000" d="M234.76,655.31c1.11-1.46,2.32-3.12,4.22-3.53c2.57,0.67,4.52,2.61,6.25,4.53
		c-8.33,11.42-17.32,22.35-25.95,33.56c-0.97,1.49-3.32,2.9-4.61,0.95c-1.36-1.74-4.97-3.94-2.7-6.25
		C219.71,674.93,227.41,665.25,234.76,655.31z"/>
	<path fill="#ECD000" d="M431.27,663.39c1.55-0.88,3.11-1.77,4.67-2.63c4.67,3.04,9.73,5.45,14.07,9c-0.48,0.57-1.45,1.72-1.93,2.3
		c-4.95-0.64-9.3-3.29-14.01-4.75C432.13,666.94,431.68,665.01,431.27,663.39z"/>
	<path fill="#ECD000" d="M261.04,669.42c1.59-2.4,4.64-0.51,6.4,0.71c1.75,0.78,1.36,2.88,1.63,4.43c-0.37,0.31-1.13,0.93-1.5,1.24
		c-1.11,3.97-3.31,7.46-5.45,10.93c0.07,1.98,2.34,2.22,3.72,3.01c1.69,0.66,3.1,1.82,4.5,2.96c4.89-3.38,6.3-9.74,8.88-14.8
		c2.98-0.19,5.7,1.01,8.23,2.47c-0.21,1.52-0.27,3.14-1.07,4.52c-5.37,10.05-10.3,20.33-15.55,30.44c-1.29,2.18-2.86,4.18-4.25,6.3
		c-3.09-0.55-5.21-2.89-7.08-5.19c3.46-5.53,6.66-11.29,9.19-17.3c-3.38-1.34-6.45-3.36-9.89-4.53c-3.78,5.49-5.77,12.09-9.62,17.57
		c-2.39-0.26-4.5-1.5-6.68-2.39c-0.1-1.41-0.2-2.81-0.27-4.2c3.34-4.57,5.44-9.85,8.07-14.82
		C253.97,683.7,257.5,676.55,261.04,669.42z"/>
	<g>
		<path fill="#ECD000" d="M566.12,670.41c2.34-1.2,5.17-0.65,7.44,0.46c5.24,3.05,7.96,8.93,9.33,14.6
			c-1.11,6.74-7.48,10.44-12.78,13.75c1.77,5.53,6.02,9.83,7.95,15.28c0.32,3.62-4.58,3.71-7.07,4.38
			c-3.56-3.9-5.15-9.13-7.88-13.59c-3.9-6.22-7.08-12.86-10.79-19.19c-1.15-2.07-2.46-4.18-2.6-6.6
			C555.15,676.41,560.63,673.4,566.12,670.41z M560.19,682.13c2.24,3.56,3.87,7.59,6.89,10.62c2.36-2.48,7.54-3.96,6.32-8.23
			c-0.76-2.36-2.69-4.2-4.51-5.81C565.52,677.86,562.82,680.5,560.19,682.13z"/>
	</g>
	<path fill="#ECD000" d="M639.01,675.66c1.67-1.7,3.35-3.39,5.05-5.05c1.77,1.14,3.69,2.18,5.1,3.81c-0.19,2.8-3.24,4.21-5.15,5.87
		C642.21,678.9,640.53,677.35,639.01,675.66z"/>
	<path fill="#ECD000" d="M182.86,676.42c0.3-2.06,2.05-4.02,4.11-4.32c2.26,0.74,5.7,1.56,5.94,4.41c-1.09,1.79-2.64,3.23-4.01,4.81
		C186.63,680.1,183.94,678.93,182.86,676.42z"/>
	<g>
		<path fill="#ECD000" d="M293.27,685.8c4.07-1.59,8.15,0.77,11.84,2.31c4.32,1.95,8.45,6.35,7.73,11.44
			c-0.41,4.09-0.9,8.28-2.7,12.03c-3.27,7.06-5.26,15.23-11.48,20.41c-4.03,1.67-9.06,2.1-12.89-0.3c-3.63-1.9-8.59-3.66-9.18-8.34
			c-1.72-7.85,2.24-15.2,4.97-22.29C284.05,695.12,286.63,688.16,293.27,685.8z M295.52,695c-4.36,4.11-5.15,10.33-7.47,15.59
			c-1.01,4.22-4.56,8.58-2.09,12.94c2.03,1.25,4.77,2.41,7.06,1.1c2.93-2.34,4.4-5.95,5.7-9.35c1.94-5.13,4.07-10.27,4.99-15.71
			c0.51-2.84-2.36-4.5-3.83-6.48C298.36,693.53,296.61,693.71,295.52,695z"/>
	</g>
	<g>
		<path fill="#ECD000" d="M516.41,694.88c2.77-1.11,5.62-2.23,8.63-2.42c2.54,1.13,3.18,4.22,4.69,6.34
			c6.38,10.59,11.73,21.82,18.71,32.03c-1.34,3.37-5.35,3.92-8.5,4.23c-2.53-2.79-3.32-6.73-5.92-9.44
			c-2.93,0.42-5.76,1.48-8.35,2.89c-0.15,3.57,1.66,7.33,0.12,10.76c-2.38,1.98-5.99,3.63-8.93,1.77
			c0.14-14.23-2.05-28.34-2.54-42.54C514.19,697,514.89,695.35,516.41,694.88z M521.07,702.65c0.38,2.31,0.81,4.62,1.26,6.93
			l0.82-1.03c0.84,3.54,0.84,7.18,1.28,10.77c1.76,1.51,4.31-0.15,6.33-0.35c-2.16-4.07-4.08-8.26-5.98-12.45l0.34-0.44
			c-0.82-1.45-1.64-2.89-2.45-4.33C522.27,701.98,521.47,702.43,521.07,702.65z"/>
	</g>
	<path fill="#ECD000" d="M324.49,698.18c6.08-0.91,13.34-0.88,17.61,4.32c4.24,3.6,2.45,9.63,1,14.16c-2.2-0.45-4.49-0.74-6.52-1.77
		c-2.04-2.36-0.82-5.76-1.04-8.57c-1.52-0.41-3.01-1.01-4.58-1.04c-3.59,0.88-5.3,4.68-6.1,7.95c-1.4,6.48-3.98,12.7-4.63,19.33
		c0.34,1.83,1.62,3.57,3.19,4.56c4.55,0.73,5.43-4.91,7.72-7.59c0.66-1.92,2.69-0.49,4.05-0.27c2.67,0.48,4.78,3.77,2.96,6.16
		c-2.41,5.46-7.56,11.32-14.21,9.63c-4.9-1.44-10.14-4.02-12.39-8.9c-1.77-9.58,3.07-18.43,5.02-27.54
		C318.18,704.55,320.92,700.7,324.49,698.18z"/>
	<g>
		<path fill="#ECD000" d="M491.5,702.17c3.89-0.79,8.07-0.6,11.69,1.15c2.77,2.3,4.69,5.64,5.58,9.13c1.68,7.93,4,15.81,4.23,23.98
			c-0.21,4.74-3.14,9.79-7.99,10.97c-3.32,0.94-6.54,2.79-10.09,2.37c-4.63-0.99-8.5-4.38-10.45-8.65
			c-2.24-8.75-4.54-17.57-5.08-26.62C478.88,707.84,485.14,702.4,491.5,702.17z M488.39,715.52c1.05,6.64,2.84,13.14,4.02,19.76
			c0.39,2.57,2.04,4.61,3.55,6.63c3.22,0.13,6.32-1.47,7.68-4.45c0.78-5.79-1.89-11.23-2.53-16.9c-1-4.5-1.81-10.64-7.17-11.87
			C491.03,709.45,487.77,712.2,488.39,715.52z"/>
	</g>
	<path fill="#ECD000" d="M362.95,709.31c-0.04-1.76,1.82-1.4,3.02-1.52c2.22,0.03,5.56-0.34,6.44,2.35
		c1.95,4.58,3.15,9.45,3.99,14.35c1.1-0.73,2.36-1.35,2.88-2.64c2.21-4.15,3.95-8.58,6.89-12.3c2.42,0.21,4.83,0.46,7.25,0.72
		c0.09,1.69,0.47,3.56-0.63,5.04c-3.31,5.41-6.37,10.96-9.59,16.43c-4.73,6.77-1.07,16-4.88,23.06c-2.4,0.34-6.03,1.21-7.62-1.08
		c-0.45-6.06,0.56-12.13,0.92-18.15C369.69,726.53,365.32,718.22,362.95,709.31z"/>
	<path fill="#ECD000" d="M467.09,708.63c2.49-0.7,5.53-1.55,7.91-0.19c2.16,10.63,2.04,21.55,3.71,32.25
		c0.32,4.4,1.37,9.01-0.33,13.27c-2.68-0.25-5.49,0.1-8.06-0.85c-2.38-6.1,0.26-13.29-2.55-19.24c-3.4,0-6.75,0.64-10.12,1
		c-0.15,6.24,1.41,12.39,1.32,18.63c-0.14,3.25-4.49,2.44-6.74,2.71c-3.23,0.3-2.64-3.59-2.87-5.71c0.16-6.05-0.56-12.05-1.44-18.02
		c-1.04-6.67-0.88-13.45-1.7-20.14c0.68-0.79,1.36-1.56,2.06-2.33c1.95-0.18,3.91-0.35,5.89-0.49c2.29,5.44,2.03,11.49,2.57,17.27
		c3.57,0.61,7.76,1.25,10.79-1.22C467.56,719.92,465.74,714.25,467.09,708.63z"/>
	<g>
		<path fill="#ECD000" d="M416.44,712.92c2.65-0.37,6.05-2.14,8.36-0.29c1.82,5.85-0.12,12.16,1.07,18.15
			c2.65-6.52,5.93-12.84,10.04-18.54c2.98-0.2,6.08-0.37,8.98,0.5c-0.45,2.64-2.61,4.51-3.73,6.87c-2.09,4.01-4.2,8.01-6.66,11.81
			c3.29,6.69,5.71,13.77,9.34,20.3c0.66,1.68,2.48,3.71,0.84,5.41c-2.9,0.63-6.02,0.46-8.88-0.25c-2.22-5.67-5.03-11.08-7.72-16.53
			c-4.44,4.69-1.39,11.43-3.27,16.9c-2.61,0.43-5.49,0.54-7.94-0.57c-0.78-1.23-0.3-2.83-0.42-4.18
			C416.54,739.31,416.47,726.11,416.44,712.92z M422.31,753.7c-1.31,0.69-1.31,1.36,0.01,2.03
			C423.62,755.02,423.62,754.35,422.31,753.7z"/>
	</g>
	<path fill="#ECD000" d="M280.15,737.33c-1.22-2.83,2-4.76,3.55-6.62c2.42,1.31,4.87,2.8,5.81,5.55c-1.24,1.67-2.43,3.37-3.6,5.1
		C283.76,740.47,280.96,739.84,280.15,737.33z"/>
</g>
<g>
	<g>
		<path fill="#00853C" d="M506.52,19.22c9.79-0.9,19.64,0.04,29.46-0.35c15.98,0.97,32.01,0.22,48,0.75
			c81.03,0.33,162.08,0.31,243.1,0.6c0.37,0.15,1.11,0.46,1.48,0.61c0.87,4.18,0.52,8.48,0.58,12.71
			c-0.12,14.66,0.15,29.32-0.26,43.96c0.57,23.01-0.23,46.02-0.04,69.03c0.21,9.98-0.53,19.94-0.02,29.91
			c-0.36,18.72,0.26,37.44-0.2,56.16c-0.2,35.94-0.23,71.88-0.2,107.82c-0.48,34.03-0.33,68.05-0.4,102.07
			c-6.34,62.55-22.4,124.6-51.41,180.59c-7.01,13.68-14.74,26.99-23.33,39.74c-4.39,7.14-9.86,13.52-14.53,20.47
			c-16.04,20.42-33.52,39.81-53.35,56.62c-30.62,26.76-65.78,48.2-103.29,63.81c-4.34,2.41-9.35,3.06-13.75,5.31
			c-4.9,2.45-10.45,3.12-15.42,5.41c-4.45,2.08-9.46,2.32-14.01,4.12c-7.95,3.37-16.82,3.5-24.84,6.67
			c-7.98,1.45-16.1,2.26-23.97,4.34c-6.56,1.72-13.41,1.2-20.05,2.34c-8.63,1.2-17.36,1.04-26.02,1.86
			c-12.4,1.24-24.89,1.38-37.29,0.06c-8.6-0.97-17.3-0.62-25.88-1.85c-7.25-1.2-14.69-0.75-21.86-2.55
			c-8.09-2.11-16.46-2.82-24.62-4.53c-7.95-3-16.65-3.17-24.5-6.46c-4.51-1.81-9.58-1.65-13.97-3.79
			c-3.76-1.81-7.83-2.77-11.82-3.92c-15.05-5.7-30.1-11.5-44.54-18.68c-28.11-13.66-54.69-30.51-78.87-50.32
			c-53.02-43.11-93.76-100.98-116.81-165.29c-9.64-26.13-16.22-53.33-20.49-80.82c-0.5-7.46-2.77-14.7-2.73-22.21
			c-0.05-7-1.7-13.89-1.5-20.91c0.03-56-0.03-112.01-0.03-168.01c-0.1-17.34,0.17-34.69-0.18-52.02
			c-0.09-70.41,0.05-140.83-0.12-211.24c0.29-0.27,0.88-0.83,1.18-1.11c107.3,0.38,214.62,0.37,321.94,0.64
			c8.17,0.46,16.37-0.12,24.54,0.45c6.01,1.21,12.31,0.59,18.18,2.58c4.36,1.36,8.81,2.43,13.18,3.8
			c10.38,4.12,20.36,9.77,27.93,18.13c1.44,2.31,4.68,1.75,6.12-0.26c7.35-8.15,17.23-13.42,27.19-17.68
			c7.52-2.16,14.78-5.41,22.67-5.92C489.9,19.95,498.26,20,506.52,19.22z M42.45,76.9c-0.93,4.8-0.78,9.75-0.53,14.6
			c0.3,1.44-0.05,3.91,2.08,3.85c85.67-0.08,171.33,0.35,256.99,0.21c17.65,1.12,35.35,0.32,53.03,0.56
			c8.17,0.27,16.48-0.72,24.55,0.97c5.3,1.8,10.77,3.08,16.07,4.94c10.76,4.65,21.43,9.85,30.6,17.26c1.22,1.03,3.08,2.41,4.63,1.08
			c4.37-2.98,8.03-6.96,12.74-9.45c4.54-2.42,8.94-5.1,13.62-7.28c5.1-2.67,10.84-3.68,16.19-5.72c5.25-2.17,11.03-1.77,16.58-1.8
			c17.32-0.01,34.64,0.04,51.96-0.03c8.67-0.55,17.36-0.32,26.05-0.14c8.33-0.46,16.69-0.46,25.04-0.31
			c67.97-0.16,135.96,0.01,203.93-0.21c2.95-0.38,6.98,1.6,9.22-0.81c1.22-5.81,0.6-11.83,0.17-17.7c-0.36-0.04-1.08-0.11-1.44-0.14
			c-103.64,0.24-207.32,0.2-310.97,0.49c-9.58-0.36-19.3,0.45-28.46,3.42c-11.06,2.61-21.59,7.67-30.41,14.87
			c-1.89,1.35-3.77,2.88-6.06,3.45c-3.47-1.56-6.53-3.83-9.64-5.97c-7.26-4.94-15.43-8.34-23.69-11.16
			c-8.58-1.56-16.88-4.69-25.72-4.57C260.15,76.97,151.24,76.73,42.45,76.9z M42.35,111.55c-0.18,3.82-1.75,8.02,0.22,11.6
			c1.5,1.3,3.59,0.7,5.39,0.78c104.67,0.2,209.36,0.26,314.04,0.23c6.4,0,12.69,1.3,19.05,1.82c2.8,0.19,5.34,1.44,7.96,2.31
			c14.5,4.05,27.96,11.62,39.01,21.85c1.97-0.18,2.99-2.14,4.37-3.3c6.59-6.23,14.89-10.22,23.11-13.82
			c5.18-2.69,11.03-3.49,16.46-5.53c5.71-2.32,12.02-1.38,17.98-2.49c62.68-0.13,125.38-0.1,188.07-0.29
			c42.45,0.12,84.91-0.28,127.35,0.2c0.53-3.46,0.77-6.99,0.28-10.47c-0.2-1.13-0.22-2.78-1.65-3.08c-2.68-0.27-5.31,0.6-7.98,0.57
			c-103.66,0.03-207.32,0.04-310.98,0.05c-6.93,0.28-14.11,0.16-20.57,3.02c-7.9,1.25-14.75,5.6-21.66,9.34
			c-5.29,2.63-9.51,6.89-14.74,9.62c-2.25-1.28-4.5-2.56-6.63-4.02c-6.64-5.11-14.46-8.31-22-11.83c-3.96-1.87-8.35-2.32-12.47-3.66
			c-6.72-2.39-13.95-2.06-20.97-2.45c-104.98-0.06-209.98,0.01-314.96-0.25C48.14,111.59,45.25,111.16,42.35,111.55z M91.53,186.54
			c0.12,68.98,0.43,137.97,0.39,206.96c0.18,1.29-0.32,3.31,1.43,3.69c4.46,0.91,9.08,0.18,13.6,0.26
			c21.01,0.17,42.03-0.24,63.04,0.16c1.55-0.1,4.38,0.29,4.34-2.03c-0.58-18.83,0.69-37.7-0.13-56.52c3.01-1.55,6.45-1.21,9.72-1.24
			c22.69,0.09,45.38-0.1,68.07-0.04c9.72,0.55,19.31-2.3,28.06-6.32c5.03-2.4,9.11-6.22,13.62-9.41
			c0.02,24.54,0.21,49.08-0.04,73.62c0.35,1.12,1.13,1.73,2.36,1.82c22.65,0.16,45.34-0.15,67.99,0.21c1.8,0.19,2.83-1.57,2.5-3.16
			c-0.14-20.03,0.13-40.06-0.06-60.08c0.17-1.36-1.21-2.62-2.52-2.52c-5.18,0.01-10.41,0.28-15.5-0.89
			c0.79-1.47,0.58-3.84,2.38-4.56c3.46-1.81,7.2-2.97,10.89-4.24c22.22-9.11,44.7-17.58,66.95-26.6c3.77,2.43,8.29,3.13,12.26,5.16
			c21.73,8.17,43.32,16.71,65.01,25.02c2.58,0.42,3.13,3.36,2,5.41c-5.59,1.59-11.47,0.16-17.12,1.14
			c-1.82,0.52-1.15,2.73-1.35,4.11c0.04,19.63,0.07,39.26,0.12,58.89c0,2.24,2.94,2.07,4.5,2.22c19.66-0.06,39.33-0.35,58.99,0.02
			c1.43,0.01,2.92-0.17,4.14-1c0.36-1.66,0.29-3.37,0.35-5.05c0.03-47.02-0.01-94.04,0.03-141.05c0.18-0.41,0.53-1.22,0.71-1.63
			c14-0.89,28.1,0.47,42.08-0.83c0.51,1.07,1.4,2.07,1.39,3.33c0.29,5.38,0.08,10.76,0.14,16.15c-0.16,42.82,0.18,85.66-0.21,128.46
			c0.13,1.41,2.16,1.44,3.26,1.55c25.7-0.26,51.42-0.22,77.12-0.04c1.29-0.07,3.5-0.33,3.37-2.09c0.35-5.96,0.02-11.95,0.32-17.91
			c0-41.68,0.48-83.37,0.5-125.05c0.2-1.39-0.51-4.01,1.75-3.78c22-0.18,44.02,0.08,66.02-0.1c2.21,0.08,1.64-2.56,1.87-3.97
			c0.09-17.03,0.03-34.06-0.02-51.08c-0.04-3.97,0.53-8.11-1.18-11.83c-12.22,0.21-24.44,0.2-36.66,0.19
			c-84.04,0.06-168.07-0.14-252.1-0.13c-2.09-0.32-3.25,1.99-3.34,3.74c-0.02,12.64,0,25.29,0.04,37.93
			c0.57,7.79-1.27,15.82,0.81,23.45c-0.52,0.12-1.56,0.34-2.08,0.46c-7.62-5.33-14.2-11.94-21.5-17.67
			c-19.29-15.98-38.42-32.15-57.83-47.98c-29.09,0.38-58.19,0.05-87.28-0.45c-1.63,5.94-0.41,12.12-1.14,18.16
			c-5.95-5.9-13.13-10.33-20.75-13.72c-3.1-1.07-6.44-1.23-9.47-2.53c-2.33-1.01-4.86-1.36-7.38-1.32
			c-7.33,0.07-14.65-0.54-21.97-0.03c-46.67,0.03-93.34,0.08-140.01,0.01C91.91,181.99,91.54,184.84,91.53,186.54z M730.61,271.94
			c-9.69,2.2-19.67,1.18-29.48,1.97c0.04,2.95-0.64,6.15,0.59,8.94c5.67,0.61,11.36-1.42,17.11-0.92c0.3,3.45,0.83,6.9,0.85,10.38
			c-5.44,2.47-11.92-0.13-17.28,2.37c-0.35,3.17-1.43,9.17,3.62,8.65c13-1.22,26.04-2.11,39.09-2.74c4.7-0.87,4.38-8.43-0.01-9.65
			c-5.05,0.33-10.02,2.13-15.13,1.57c-1.22-0.17-3.06-0.3-2.98-1.97c-0.46-2.78-0.62-5.59-1.01-8.37c6.08-2.07,12.8-1,19-2.68
			c1.17-0.57,1.75-1.85,2.61-2.78c-0.75-1.89-1.39-3.83-2.41-5.58C740.39,270.2,735.38,271.24,730.61,271.94z M731.59,309.04
			c0.51,2.45,0.87,4.94,1.71,7.31c2.58,0.82,5.38,0.35,8.06,0.7c0.64,1.13,1.27,2.25,1.92,3.4c-0.32,1.15-0.63,2.3-0.92,3.47
			c-7.32,4.38-16.18,3.67-24.37,3.9c-3.15,0.29-5.74-1.46-7.68-3.73c-0.01-1.11-0.01-2.22,0-3.33c2.23-2.18,5.72-2.07,7.96-4.12
			c-0.13-3.01-0.7-6.26-3.01-8.4c-3.93,1.58-8.31,3.05-10.87,6.64c-3.84,7.16-1.34,17.9,6.65,20.99c7.54,1.74,15.34,0.51,22.96,0.02
			c4.15-0.14,8.17-1.43,11.82-3.36c8.09-5.74,6.37-20.29-2.71-24.18C739.34,307.63,735.1,307.12,731.59,309.04z M395.63,353.85
			c-2.24,8.61-1.3,18.47,4.31,25.65c4.15,6.42,11.24,10.19,18.49,12.04c0.95,5.61,0.71,11.31,0.8,16.98
			c-0.18,14.98-0.21,29.97,0.2,44.94c0.98,12.01-0.12,24.04,0.52,36.05c0.31,2.46-0.88,5.44,0.99,7.45c2.42-0.29,7.12,0.3,6.75-3.35
			c0.25-33.99,0.97-67.98,1.35-101.97c12.83-2.62,23.74-13.85,24.4-27.19c1.59-17.12-14.44-33.02-31.49-31.62
			C410.04,333.58,399.11,342.44,395.63,353.85z M726.54,346.83c-6.05,0.98-12.07,2.16-18.08,3.31c-3.36,0.83-3.73,4.46-3.57,7.35
			c0.22,1.62-0.79,4.02,1.1,4.92c4.53,2.95,10.08,3.06,15.1,4.68c9.69,1.83,18.97,6.26,28.86,6.57c1.31-2.69,1.41-6.29-0.18-8.86
			c-3.26-1.39-7.32-0.59-10.23-2.61c-1.07-2.85-0.03-6.18-0.21-9.21c3.67-0.46,7.8-0.07,11.03-2.16c0.72-2.06,0.81-4.28,0.71-6.44
			c0.07-1.63-1.43-2.76-2.96-2.17C740.84,343.36,733.57,344.63,726.54,346.83z M754.22,353.77c-1.63,0.17-1.28,2.62-1.57,3.81
			c0.17,1.55-0.88,4.23,1.32,4.64c2.26,0.36,7.18,1.01,6.5-2.66c-0.28-1.92,0.53-4.81-1.59-5.83
			C757.33,353.46,755.75,353.54,754.22,353.77z M707.43,384.72c5.02,0.74,10.14,0.65,15.2,1.2c-0.05,3.66-0.3,7.3-0.53,10.95
			c-5.7,0.19-11.38-0.68-17.06-0.54c-2.85,1.57-2.11,6.23-0.16,8.32c4.87,1.31,10.03,0.58,14.99,1.43c7,1.38,14.2,0.47,21.22,1.69
			c1.8,0.2,3.63,0.73,5.46,0.41c4.15-0.83,4.18-8.21-0.02-8.93c-5.79-0.61-11.65-0.49-17.42-1.35c-0.1-3.69,0.2-7.37,0.51-11.03
			c6.47,0.31,12.95,0.79,19.42,1.01c3.41-1.36,1.7-6,1.08-8.7c-5.68-0.76-11.44-0.77-17.08-1.81c-8.77-0.45-17.59-0.36-26.3-1.61
			C704.93,378.39,704.08,382.94,707.43,384.72z M379.1,406.74c-4.24,2.75-9.58,1.63-14.18,3.3c-6.59,2.24-13.62,1.47-20.44,2.04
			c-9.11,1.24-18.33,1.05-27.5,1.61c-6.57,0.35-13.21-0.09-19.7,1.17c-0.82,4.82,3.88,7.67,7.38,9.85
			c3.94,2.39,8.64,1.45,12.96,2.27c2.32,2.95,3.83,6.64,6.91,8.96c3.53,2.53,8.16,1.65,12.05,3.17c2.36,2.59,3.74,6.18,7.04,7.84
			c7.45,5.26,17.2,2.5,25.13-0.1c3.04,4.25,7.45,7.59,12.33,9.42c8.19,1.7,16.64,1.28,24.95,1.14c2.65-0.1,5.39-0.08,7.92-1.01
			c1.73-0.4,1.2-2.65,1.38-3.93c-0.05-11.74-0.01-23.48-0.14-35.21c-3.04-0.64-6.61-0.57-8.75-3.2c-2.93-2.52-3.36-6.53-5.17-9.74
			c-1.95-4.1-7.53-3.71-11.27-2.87C385.83,401.92,382.59,404.7,379.1,406.74z M444.01,410.48c-1.99,4.38-6.56,6.51-11.15,6.86
			c-0.2,12.09,0.11,24.18,0.03,36.28c-0.41,2.3,2.06,3.64,4.05,3.59c8.96,0.35,17.96,0.67,26.89-0.3
			c5.93-0.78,10.93-4.72,14.62-9.21c0.97-1.51,2.88-0.12,4.16,0.15c4.83,1.99,10.22,2.33,15.38,1.78
			c5.78-1.01,9.78-5.64,12.82-10.29c4.15-1.27,8.85-1.06,12.63-3.44c2.94-2.26,4.42-5.75,6.27-8.85c3.45-0.65,7.09-0.12,10.47-1.24
			c4.03-1.22,7.79-3.79,10.04-7.38c0.96-1.66-0.57-3.17-1.3-4.53c-13.8,0.24-27.6-0.55-41.37-1.31c-8.11-1.37-16.53,0.01-24.49-2.35
			c-5.41-1.73-11.55-1.05-16.32-4.6c-4.73-3.4-10.82-5.71-16.64-4.15C446.06,402.51,445.33,407.18,444.01,410.48z M126.99,411.66
			c-0.72,2.7-0.25,5.59-0.81,8.35c-11.64,1.87-23.5,0.98-35.24,1.32c-1.12,0-2.09,0.38-2.89,1.16c0,2.5,0,5.54,1.95,7.39
			c6.99,0.05,13.99-0.29,20.99-0.25c5.36,0.09,10.86-1.01,16.11,0.5c-0.11,3.14-0.16,6.28-0.04,9.42
			c-6.42,2.38-13.37,1.43-19.98,2.79c-4.96,0.82-10.03,0.75-14.98,1.65c-1.74,0.49-4.14,1.29-4.32,3.41
			c-0.43,2.59,1.46,4.62,2.9,6.51c5.59-1.33,11.36-2.76,17.13-2.12c2.06,3.55,1.73,10.61-3.58,10.97
			c-4.81,0.62-9.85,1.13-13.97,3.97c-0.02,2.82,1.01,5.49,1.66,8.21c5.62-1.51,11.21-3.17,17.04-3.62c2.93-0.08,3.33-4,5.95-4.66
			c3.06,2.08,6.43,3.56,10.19,3.66c-0.46,1.57-1.52,2.41-3.19,2.51c-9.04,2.46-19.01,2.9-26.69,8.87c-1.78,2.57-3.72,5.66-2.82,8.93
			c1.37,5.31,2.54,11.76,7.63,14.82c6.66,2.26,13.58-0.24,19.95-2.26l0.26-0.09c1.32,0.21,2.64,0.37,3.97,0.46
			c-0.9,0.69-1.79,1.38-2.68,2.08c-5.15,1.29-10.15,3.25-14.94,5.52c-3.36,2.52-7.18,5.74-7.16,10.34c0.4,6.43,3.26,13.15,9,16.53
			c4.53,1.91,9.51,0.43,13.88-1.21c8.13-2.33,16.75-4.98,22.8-11.18c2.19,0.39,4.28,1.19,6.41,1.8c1.97-1.05,3.94-2.06,5.92-3.08
			c-0.83-1.99-0.93-5.32-3.62-5.63c-2.26-0.13-3.11,2.37-4.28,3.83c-0.78-0.57-2.61-0.54-2.37-1.87c0.05-6.07-1.78-12.83-6.82-16.63
			c-2.05-1.7-4.9-1.72-7.42-1.59c1.34-1.26,2.76-2.43,4.26-3.5c1.74,1.29,3.18,3.01,5.08,4.11c2.88,0.88,5.78-0.38,8.54-1.14
			c0.44,3.48-2.63,6.09-2.35,9.5c0.02,1.48,0.29,4.76,2.61,3.44c2.19-1.82,4.14-4.13,5.78-6.45c-0.12-2.8-0.85-6.6-3.97-7.45
			c-2.55-0.54-2.8-3.41-4.13-5.2c-1.27-0.29-2.55-0.48-3.84-0.58c-0.71,1.23-1.44,2.46-2.17,3.69c-2.09-2.61,0.42-8.07-3.72-8.78
			c-7.52,0.29-14.64,3.19-21.87,5.02c-4.76,0.79-9.42,2.84-14.33,1.86c-1.37-2.15-2.6-4.41-2.86-6.98c4.71-4.91,11.8-5.19,18-6.82
			c6.1-2.11,12.56-2.86,18.68-4.93c0.09-2.83,0.91-7.52-2.76-8.39c-2.94,0.4-5.83,1.27-8.84,1.24c2.32-2.94,7.05-2.47,8.85-5.9
			c1.26-3,2-6.34,1.35-9.57c-0.84-5.16-1.15-10.38-1.73-15.56c1.27-4.43,0.63-9.06,0.7-13.6c-0.11-4.67,0.18-9.35-0.2-14
			C133.65,409.23,128.66,409.88,126.99,411.66z M702.45,410.77c-0.84,8.55-1.53,17.14-1.83,25.72c1.26,1.55,3.79,2.47,5.51,1.12
			c2.46-1.57,1.63-4.9,2.08-7.34c0.46-0.31,1.38-0.92,1.84-1.23c11.41,0.42,22.69,2.63,34.12,2.58c1.16,0.02,3.15-0.47,3-2
			c-0.02-2.27,0.69-5.22-1.31-6.87c-3.35-0.23-6.71-0.14-10.02-0.64c-8.86-0.71-17.99,0.1-26.53-2.84c-0.1-3.03,0.1-6.05,0.12-9.07
			C707.11,410.18,704.54,409.43,702.45,410.77z M698.29,461.73c-6.64,5.7-8.14,17.48-0.82,23.28c5.82,3.03,12.36,4.27,18.69,5.8
			c5.89,0.22,11.98,1.36,17.75-0.33c6.17-4.65,9.94-15.48,3.65-21.52c-2.72-3.28-7.25-3.53-10.95-5.04
			c-1.54,1.82-3.46,3.95-2.73,6.55c1.35,3.42,5.74,2.88,8.18,5.02c1.97,2.49,0.08,6.51-2.98,6.88c-5.09,0.85-10.02-1.3-15.07-1.51
			c-4.16-0.1-8.01-1.87-11.59-3.82c-1.92-0.89-2.39-3.09-3.16-4.84c1.72-2.03,4-3.43,6.77-2.81c2.88,0.77,3.49-2.64,4.31-4.59
			c0.33-1.24,1.08-3.34-0.76-3.66C705.89,460.31,701.85,460.44,698.29,461.73z M375.93,465.56c-10.86,2.95-17.5,15.24-14.72,26.04
			c2.91,9.51,10.58,17.52,20.03,20.69c3.57,1.56,5.84-2.44,8.23-4.33c3.77-4.13,9.34-5.4,14.29-7.48c-0.08-0.53-0.24-1.6-0.32-2.13
			c-4.23-2.29-9.31-0.53-13.59-2.66c-5.31-2.23-10.52-5.44-13.93-10.18c0.99-2.02,2.11-3.96,3.38-5.81
			c5.89-0.26,9.79,4.75,14.97,6.61c3.83,1.78,8.74,3.76,12.61,1.03c1.61-1.16,3.64-0.27,5.43-0.2c4.44-2.09,2.72-7.52,1-10.92
			c-2.74-5.7-8.12-10.15-14.42-11.22C391.29,464.03,383.35,462.99,375.93,465.56z M435.97,472.36c-2.43,3.54-3.5,7.87-3.42,12.13
			c0.75,3.13,3.99,2.79,6.4,2.13c4.8,4.11,11.02,1.03,15.87-1.25c3.79-1.6,6.71-5.45,11.05-5.49c3.04,0.17,4.24,3.26,5.08,5.73
			c-1.01,1.27-1.93,2.63-3.11,3.76c-5.42,3.64-11.45,6.35-17.92,7.42c-7.66,1.02-15.14,3.51-22.94,3.27
			c-8.26,0.69-16.51,2.18-24.36,4.89c-8.39,3.14-16.42,8.33-20.85,16.35c-2.83,7.01-2.98,14.9-0.78,22.12
			c3.45,6.59,9.49,11.5,16.07,14.75c4.02,0.15,7.08-3.45,10.63-4.99c2.74-1.99,7.42-2.8,7.68-6.84c-3.24-2.07-6.91-3.75-9.14-7.07
			c-2.03-2.94-4.48-7.19-2.17-10.62c3.37-5.55,10.43-6.08,16.15-7.4c12.19-0.6,24.05-3.63,36.05-5.62
			c7.02-2.34,14.13-5.23,19.73-10.22c5.07-4.42,9.43-10.14,10.76-16.85c0.46-8.47-3.85-17.21-11.42-21.31
			c-8.35-4.35-18.23-3.63-27.22-2.16C443.29,465.84,439.26,468.95,435.97,472.36z M694.47,492.03c-3.09,0.72-5.7,3.01-7.49,5.55
			c-2.4,4.89-4.92,10.85-2.2,16.14c2.43,3.67,6.13,6.5,10.4,7.66c5.26,1.69,10.41,3.96,15.96,4.58c3.89,0.53,7.95,1.85,11.77,0.18
			c5.29-1.37,6.8-7.36,8.07-11.96c1.39-4.61,0.48-10.09-3.66-12.97c-5.15-2.94-10.69-5.4-16.53-6.59
			C705.41,493.49,700.07,491.13,694.47,492.03z M733.23,513.72c-1.39,1.6-3.36,3.32-2.93,5.69c0.98,1.47,2.75,2.02,4.37,2.48
			c3.24,1.55,4.67-2.92,5.21-5.33C738.38,514.89,735.32,511.93,733.23,513.72z M454.09,520.06c-4.55,1.84-9.34,2.93-14.13,3.89
			c0.92,4.01,4.84,7.81,2.57,12.04c-2.63,5.22-8.1,8.53-13.49,10.36c-9.14,3.9-18.47,7.64-26.6,13.46
			c-6.94,4.38-13.28,11.18-13.84,19.75c0.29,7.34,5.13,13.36,9.83,18.6c1.44,0.89,2.61-0.79,3.68-1.49
			c3.56-3.34,8.1-5.24,12.39-7.42c-0.88-2.36-2.76-4.03-4.25-5.98c-1.39-2.28-0.31-4.96,0.25-7.31c5.03-3,9.94-6.38,15.57-8.17
			c7.58-2.69,15.11-5.57,22.49-8.75c8.44-4.72,16.74-11.6,19.14-21.39c1.86-6.16-0.79-12.53-4.19-17.59
			C461.08,516.72,457.1,519.09,454.09,520.06z M678.04,526.52c-2.72,3.55-4.81,7.67-5.53,12.12c-0.53,4.36,2.19,8.31,5.55,10.81
			c7.35,4.8,15.79,7.45,24.02,10.29c3.98,0.53,9.14,1.41,12.08-2.07c3.74-3.62,6.5-8.88,4.43-14.11c2.84-1.39,3.77-4.37,4.32-7.24
			c-7.19-2.2-13.61-6.38-20.91-8.23c-3.25,0.42-3.81,3.98-4.99,6.41c-0.82,2.2-2.7,5.33-0.04,7.02c2.6,2.57,5.38-0.85,6.86-2.92
			c3.66,0.5,6.31,3.2,8.65,5.83c0.06,2.53-0.3,6.36-3.56,6.59c-6.43,0.33-12.17-3.22-18.01-5.38c-3.94-1.2-8-3.17-10.3-6.69
			c-1.4-4.78,4.67-8.94,8.78-6.06c2.68-1.98,4.74-4.97,4.22-8.45C688.51,521.61,682.24,522.55,678.04,526.52z M418.76,525.94
			c-1.03,6.21-0.67,12.61-0.03,18.85c1.84,0.97,5.61,1.51,6-1.29c0.86-6.35,0.58-12.81,0.12-19.18
			C422.89,524.72,419.99,524.15,418.76,525.94z M146.15,531.66c-3.69,2.4-7.83,3.98-11.61,6.24c-8.63,4.08-16.78,9.11-25.52,12.96
			c0.66,2.91,1.8,5.8,3.8,8.06c2.95-0.45,5.32-2.36,7.91-3.67c6.85-3.47,13.45-7.42,19.99-11.45c-5.97,6.19-12.24,12.11-17.56,18.89
			c-1.76,2.45-5.29,4.34-4.67,7.83c0.24,2.35,1.81,5.46,4.48,5.54c4.18-0.77,7.78-3.24,11.55-5.07c6.74-3.11,13.26-6.66,19.86-10.05
			c2.4-1.21,5.15-2.07,6.95-4.17c1.01-3-1.02-7.11-4.35-7.39c-7.66,3.19-14.39,8.48-22.24,11.26c0.4-0.66,1.22-1.97,1.62-2.62
			c6.08-6.24,11.81-12.83,17.33-19.57c-1.41-2.51-2.67-5.13-4.51-7.35C148.13,530.62,147.03,531.04,146.15,531.66z M668.14,550.83
			c-0.75,2.55-3.06,4.99-2.5,7.75c6.42,3.58,12.79,7.41,19.81,9.73c0.06,0.61,0.19,1.84,0.25,2.45c-1.25-0.02-2.49-0.03-3.71-0.05
			c-5.61-2.22-11.71-0.89-17.52-1.85c-1.83-0.1-4.02-0.86-5.5,0.62c-2.27,1.63-2.51,4.59-3.11,7.08
			c12.95,6.94,26.08,13.78,38.95,20.71c2.02-1.56,3.84-4.17,4.42-6.74c-4.26-4.58-10.57-6.41-15.99-9.23
			c-2.27-1.33-5.66-1.69-6.38-4.68c9.38,0.77,18.62,4.25,28.12,2.9c1.96-1.98,4.62-6.08,2.68-8.66c-8.74-4.54-17.32-9.4-26.04-13.98
			C677.25,554.65,673.11,551.47,668.14,550.83z M445.41,564.01c-4.34,2.29-8.95,3.95-13.61,5.44c-1.16,2.41,1.7,3.76,2.88,5.43
			c2.22,2.17,3.8,6.07,1.59,8.78c-2.29,2.83-5.48,5.05-9.13,5.61c-3.67,0.7-6.76,2.96-10.33,3.95c-4.95,1.02-9.2,3.94-13.25,6.8
			c-4.4,4.37-8.9,9.89-8.38,16.49c-0.13,4.49,2.78,8.14,5.25,11.6c1.02,1.64,3.19,2.88,5.01,1.66c3.34-1.7,6.97-2.79,10.23-4.66
			c-0.4-3.1-3.46-5.35-3.07-8.67c0.9-3.21,4.09-4.88,6.71-6.53c8.95-4.6,19.5-5.46,27.9-11.24c5.01-3.64,9.91-8.68,10.25-15.22
			c0.82-7.34-3.42-14.05-8.1-19.29C448.3,562.83,446.69,563.46,445.41,564.01z M158.51,565c-4.89,1.81-9.69,4.04-13.91,7.14
			c-5.11,3.4-10.58,6.65-14.43,11.52c-2.75,3.27-2.47,8.04-0.9,11.77c1.48,3.4,4.16,7.03,8.28,6.94c-0.38,2.16-0.58,4.7,1.26,6.32
			c1.51,1.92,4.1,0.38,5.67-0.68c4.97-3.76,10.57-6.61,15.47-10.46c0.08-5.3-5.01-8.46-7.52-12.59c-3.18,1.03-6.26,5.02-2.55,7.52
			c-0.26,0.67-0.54,1.34-0.85,2c-3.44,2.11-7.71,2.86-11.53,1.35c-0.47-2.24-1.74-4.88,0-6.89c3.68-4.12,8.73-6.56,13.21-9.67
			c3.24-1.96,6.29-4.97,10.35-4.83c3.44,0.06,5.73,3.92,5.04,7.11c-1.09,2.27-4.52,3.92-3.13,6.84c0.9,1.99,2.14,5.38,4.92,4.47
			c3.53-3.07,7.08-7.13,6.72-12.14c-1.14-5.74-4.52-11.16-9.53-14.28C163.12,565.33,160.8,564.05,158.51,565z M419.4,574.56
			c-0.46,3.83-0.38,7.73,0.07,11.57c1.71-0.12,4.88,0.8,5.22-1.66c0.31-3.53,0.35-7.13-0.1-10.64
			C423.59,571.53,419.86,572.28,419.4,574.56z M638.44,602.61c1.91,5.12,5.93,9.05,8.91,13.55c1.88,2.84,5.07,4.93,5.63,8.51
			c-4.53-2.05-8.45-5.21-13.07-7.1c-3.44-1.53-6.77-5.31-10.79-3.96c-2.59,2.41-4.73,5.28-7.04,7.97c-0.23,1.59,1.05,2.72,2.08,3.73
			c7.54,6.44,14.88,13.11,22.43,19.54c3.12,2.61,5.79,5.78,9.25,7.98c1.48-2.44,5.98-4.6,4.46-7.78
			c-5.64-5.29-11.36-10.57-17.71-15.02c-2.56-1.82-4.94-3.91-6.95-6.33c4.63,0.64,8.22,3.86,12.22,6c5.01,3.14,10.47,5.44,15.47,8.6
			c2.24,1.56,6.75,0.65,6.46-2.68c-0.55-2.16-2.1-3.87-3.35-5.64c-3.9-4.76-7.05-10.1-11.18-14.69c-1.63-2.25-4.38-4.14-4.03-7.28
			c6.4,5.37,12.01,11.64,18.71,16.69c2.2,1.49,3.88,5.71,7.06,3.67c1.94-1.52,3.78-3.89,3.66-6.46
			c-9.55-7.41-18.22-15.87-27.47-23.63c-2.16-1.65-3.97-5.23-7.16-4.18C643.09,596.52,641.2,599.98,638.44,602.61z M441.95,605.47
			c-3.01,2.03-6.58,2.76-10.02,3.68c-1.5,3.05,1.88,6.2,2.5,9.28c-1.46,2.29-2.71,4.95-5.26,6.23c-7,3.54-15.01,4.4-21.97,8.03
			c-3.36,1.78-5.55,5.25-6.76,8.75c0.6,5.17,4.16,9.41,7.82,12.85c1.79,1.68,4.36,0.83,6-0.62c2.96-2.37,6.35-4.17,9.25-6.61
			c0.8-2.14-0.55-3.66-2.58-4.19c-0.69,1.99-1.41,3.96-2.15,5.94c-1.4-2.96-1.39-7.03,1.59-9c6.84-4.73,16.13-3.87,22.7-9.18
			c5.09-2.81,8.29-8.38,8.67-14.12c-0.64-4.32-2.12-8.62-4.57-12.25C445.39,602.73,443.52,604.64,441.95,605.47z M183.59,614.11
			c-3.2,2.67-7.38,3.46-11.06,5.19c0.08,0.77,0.24,2.31,0.32,3.09c-3.54,3.11-7.2,6.08-10.89,9.02c-1.26,1.25-3.07,2.29-3.46,4.15
			c3.83,4.91,7.64,9.92,12.17,14.22c3.59,3.76,9.67,2.65,13.63,0.07c7.32-4.43,14.33-9.58,20-16.04c3.41-3.82,3.75-9.96,0.38-13.94
			c-3.84-4.37-6.76-9.7-11.62-13.06C189.54,608.76,186.69,611.61,183.59,614.11z M420.25,612.89c-1.35,3.31-0.51,7.22-0.08,10.7
			c0.48,0.12,1.44,0.38,1.92,0.5c2.18-2.93,2.68-6.98,1.99-10.5C423.08,612.5,421.56,612.3,420.25,612.89z M604.75,640.52
			c5.55,10.73,11.68,21.16,17.25,31.88c1.6,2.74,2.25,7,5.92,7.66c2.26-0.8,4.35-2.37,5.39-4.57c-0.39-4.01-3.69-6.88-4.62-10.74
			c2.22-1.83,4.36-3.76,6.45-5.74c2.89,1.99,5.51,4.52,8.85,5.77c3.16-0.05,5.29-2.97,7.29-5.09c-4.09-4.22-9.3-6.98-13.98-10.44
			c-6.73-4.96-13.77-9.49-20.32-14.69c-1.35-1.1-3.26-2.08-4.91-0.98C609.28,635.46,606.79,637.85,604.75,640.52z M216.85,636.4
			c-10.81,7.77-22.49,14.17-33.53,21.59c-0.87,0.71-2.28,1.2-2.38,2.51c1.16,2.37,3.36,3.97,5.11,5.88c3.64-1.3,6.46-4.08,9.93-5.65
			c2.9,1.37,4.94,4.09,7.32,6.19c-2.07,3.11-4.82,5.95-5.95,9.58c1.67,2.75,3.96,6.15,7.64,5.78c0.94-2.5,2.17-4.88,3.67-7.08
			c6.63-10.01,12.21-20.67,18.89-30.63c-0.1-0.73-0.3-2.18-0.41-2.91c-2.24-1.85-4.35-3.87-6.54-5.78
			C219.51,634.48,217.88,635.61,216.85,636.4z M431.96,639.4c-3.57,1.61-1.74,6.42-4.26,8.83c-5.1,6.37-12.56,10.18-19.3,14.56
			c-4.29,2.89-10.31,4.38-12.58,9.44c4.82,0.48,9.51-1.14,13.88-3.01c12.83-3.97,25.99-9.8,34.44-20.68
			c2.95-3.63,3.07-10.56-2.25-11.98C438.53,637.29,435.24,638.38,431.96,639.4z M590.39,654.52c2.72,4.57,6.57,8.37,9.28,12.96
			c-1.75,2.87-4.9,4.47-7.42,6.58c-0.47,0.02-1.39,0.06-1.86,0.08c-2.79-3.86-5.15-8.05-8.37-11.57c-2.6-2.63-5.75,1.09-8.24,2.15
			c0.45,1.24,0.77,2.58,1.5,3.73c7.21,9.42,13.85,19.26,20.93,28.78c1.53,1.63,2.14,4.77,4.74,4.92c2.58-1.08,4.83-3.25,5.94-5.82
			c-3.85-5.31-8.08-10.4-11.89-15.75c3.1-2.03,6.09-4.21,8.99-6.52c3.58,3.98,6.61,8.41,9.68,12.79c1.99,5.23,12.01,0.52,8.44-4.31
			c-8.76-11.04-16.44-22.94-25.24-33.92C593.7,648.82,591.68,651.94,590.39,654.52z M234.76,655.31
			c-7.35,9.94-15.05,19.62-22.79,29.26c-2.27,2.31,1.34,4.51,2.7,6.25c1.29,1.95,3.64,0.54,4.61-0.95
			c8.63-11.21,17.62-22.14,25.95-33.56c-1.73-1.92-3.68-3.86-6.25-4.53C237.08,652.19,235.87,653.85,234.76,655.31z M431.27,663.39
			c0.41,1.62,0.86,3.55,2.8,3.92c4.71,1.46,9.06,4.11,14.01,4.75c0.48-0.58,1.45-1.73,1.93-2.3c-4.34-3.55-9.4-5.96-14.07-9
			C434.38,661.62,432.82,662.51,431.27,663.39z M261.04,669.42c-3.54,7.13-7.07,14.28-10.74,21.35c-2.63,4.97-4.73,10.25-8.07,14.82
			c0.07,1.39,0.17,2.79,0.27,4.2c2.18,0.89,4.29,2.13,6.68,2.39c3.85-5.48,5.84-12.08,9.62-17.57c3.44,1.17,6.51,3.19,9.89,4.53
			c-2.53,6.01-5.73,11.77-9.19,17.3c1.87,2.3,3.99,4.64,7.08,5.19c1.39-2.12,2.96-4.12,4.25-6.3c5.25-10.11,10.18-20.39,15.55-30.44
			c0.8-1.38,0.86-3,1.07-4.52c-2.53-1.46-5.25-2.66-8.23-2.47c-2.58,5.06-3.99,11.42-8.88,14.8c-1.4-1.14-2.81-2.3-4.5-2.96
			c-1.38-0.79-3.65-1.03-3.72-3.01c2.14-3.47,4.34-6.96,5.45-10.93c0.37-0.31,1.13-0.93,1.5-1.24c-0.27-1.55,0.12-3.65-1.63-4.43
			C265.68,668.91,262.63,667.02,261.04,669.42z M421.21,668.6c-0.31,0.23-0.93,0.71-1.25,0.95c0.42,8.9,0.13,17.83,0.62,26.73
			c-0.32,1.74,1.84,1.12,1.94-0.02c0.75-6.24-0.16-12.55,0.55-18.79c0.06-2.9,0.65-5.9-0.18-8.72
			C422.47,668.71,421.63,668.63,421.21,668.6z M566.12,670.41c-5.49,2.99-10.97,6-16.4,9.09c0.14,2.42,1.45,4.53,2.6,6.6
			c3.71,6.33,6.89,12.97,10.79,19.19c2.73,4.46,4.32,9.69,7.88,13.59c2.49-0.67,7.39-0.76,7.07-4.38
			c-1.93-5.45-6.18-9.75-7.95-15.28c5.3-3.31,11.67-7.01,12.78-13.75c-1.37-5.67-4.09-11.55-9.33-14.6
			C571.29,669.76,568.46,669.21,566.12,670.41z M639.01,675.66c1.52,1.69,3.2,3.24,5,4.63c1.91-1.66,4.96-3.07,5.15-5.87
			c-1.41-1.63-3.33-2.67-5.1-3.81C642.36,672.27,640.68,673.96,639.01,675.66z M182.86,676.42c1.08,2.51,3.77,3.68,6.04,4.9
			c1.37-1.58,2.92-3.02,4.01-4.81c-0.24-2.85-3.68-3.67-5.94-4.41C184.91,672.4,183.16,674.36,182.86,676.42z M293.27,685.8
			c-6.64,2.36-9.22,9.32-11.71,15.26c-2.73,7.09-6.69,14.44-4.97,22.29c0.59,4.68,5.55,6.44,9.18,8.34c3.83,2.4,8.86,1.97,12.89,0.3
			c6.22-5.18,8.21-13.35,11.48-20.41c1.8-3.75,2.29-7.94,2.7-12.03c0.72-5.09-3.41-9.49-7.73-11.44
			C301.42,686.57,297.34,684.21,293.27,685.8z M516.41,694.88c-1.52,0.47-2.22,2.12-2.09,3.62c0.49,14.2,2.68,28.31,2.54,42.54
			c2.94,1.86,6.55,0.21,8.93-1.77c1.54-3.43-0.27-7.19-0.12-10.76c2.59-1.41,5.42-2.47,8.35-2.89c2.6,2.71,3.39,6.65,5.92,9.44
			c3.15-0.31,7.16-0.86,8.5-4.23c-6.98-10.21-12.33-21.44-18.71-32.03c-1.51-2.12-2.15-5.21-4.69-6.34
			C522.03,692.65,519.18,693.77,516.41,694.88z M324.49,698.18c-3.57,2.52-6.31,6.37-7.92,10.43c-1.95,9.11-6.79,17.96-5.02,27.54
			c2.25,4.88,7.49,7.46,12.39,8.9c6.65,1.69,11.8-4.17,14.21-9.63c1.82-2.39-0.29-5.68-2.96-6.16c-1.36-0.22-3.39-1.65-4.05,0.27
			c-2.29,2.68-3.17,8.32-7.72,7.59c-1.57-0.99-2.85-2.73-3.19-4.56c0.65-6.63,3.23-12.85,4.63-19.33c0.8-3.27,2.51-7.07,6.1-7.95
			c1.57,0.03,3.06,0.63,4.58,1.04c0.22,2.81-1,6.21,1.04,8.57c2.03,1.03,4.32,1.32,6.52,1.77c1.45-4.53,3.24-10.56-1-14.16
			C337.83,697.3,330.57,697.27,324.49,698.18z M491.5,702.17c-6.36,0.23-12.62,5.67-12.11,12.33c0.54,9.05,2.84,17.87,5.08,26.62
			c1.95,4.27,5.82,7.66,10.45,8.65c3.55,0.42,6.77-1.43,10.09-2.37c4.85-1.18,7.78-6.23,7.99-10.97
			c-0.23-8.17-2.55-16.05-4.23-23.98c-0.89-3.49-2.81-6.83-5.58-9.13C499.57,701.57,495.39,701.38,491.5,702.17z M362.95,709.31
			c2.37,8.91,6.74,17.22,8.67,26.26c-0.36,6.02-1.37,12.09-0.92,18.15c1.59,2.29,5.22,1.42,7.62,1.08
			c3.81-7.06,0.15-16.29,4.88-23.06c3.22-5.47,6.28-11.02,9.59-16.43c1.1-1.48,0.72-3.35,0.63-5.04c-2.42-0.26-4.83-0.51-7.25-0.72
			c-2.94,3.72-4.68,8.15-6.89,12.3c-0.52,1.29-1.78,1.91-2.88,2.64c-0.84-4.9-2.04-9.77-3.99-14.35c-0.88-2.69-4.22-2.32-6.44-2.35
			C364.77,707.91,362.91,707.55,362.95,709.31z M467.09,708.63c-1.35,5.62,0.47,11.29,0.44,16.94c-3.03,2.47-7.22,1.83-10.79,1.22
			c-0.54-5.78-0.28-11.83-2.57-17.27c-1.98,0.14-3.94,0.31-5.89,0.49c-0.7,0.77-1.38,1.54-2.06,2.33c0.82,6.69,0.66,13.47,1.7,20.14
			c0.88,5.97,1.6,11.97,1.44,18.02c0.23,2.12-0.36,6.01,2.87,5.71c2.25-0.27,6.6,0.54,6.74-2.71c0.09-6.24-1.47-12.39-1.32-18.63
			c3.37-0.36,6.72-1,10.12-1c2.81,5.95,0.17,13.14,2.55,19.24c2.57,0.95,5.38,0.6,8.06,0.85c1.7-4.26,0.65-8.87,0.33-13.27
			c-1.67-10.7-1.55-21.62-3.71-32.25C472.62,707.08,469.58,707.93,467.09,708.63z M416.44,712.92c0.03,13.19,0.1,26.39,0.01,39.58
			c0.12,1.35-0.36,2.95,0.42,4.18c2.45,1.11,5.33,1,7.94,0.57c1.88-5.47-1.17-12.21,3.27-16.9c2.69,5.45,5.5,10.86,7.72,16.53
			c2.86,0.71,5.98,0.88,8.88,0.25c1.64-1.7-0.18-3.73-0.84-5.41c-3.63-6.53-6.05-13.61-9.34-20.3c2.46-3.8,4.57-7.8,6.66-11.81
			c1.12-2.36,3.28-4.23,3.73-6.87c-2.9-0.87-6-0.7-8.98-0.5c-4.11,5.7-7.39,12.02-10.04,18.54c-1.19-5.99,0.75-12.3-1.07-18.15
			C422.49,710.78,419.09,712.55,416.44,712.92z M280.15,737.33c0.81,2.51,3.61,3.14,5.76,4.03c1.17-1.73,2.36-3.43,3.6-5.1
			c-0.94-2.75-3.39-4.24-5.81-5.55C282.15,732.57,278.93,734.5,280.15,737.33z"/>
	</g>
	<path fill="#00853C" d="M177.36,244.09c18.85-0.47,37.74-0.03,56.61-0.22c2.37,0.07,4.83-0.2,7.14,0.5
		c9.68,5.29,11.4,20.94,2.5,27.77c-1.93,2.14-5.04,1.68-7.62,1.81c-19.36-0.12-38.71,0-58.06-0.05c-2.85,0.72-2.92-2.5-2.77-4.43
		c0.11-7.67-0.09-15.34,0.02-23.01C175.01,245.12,175.95,243.9,177.36,244.09z"/>
	<path fill="#00853C" d="M724.75,355.83l0.27-0.12c2.09-0.46,4.24-1.02,6.41-0.74c1.11,1.53,0.69,3.5,0.94,5.26
		c-2.79,0.21-5.6-0.04-8.23-1.02c-1.48-0.5-2.96-1.06-4.41-1.59C721.38,357.02,723.11,356.52,724.75,355.83z"/>
	<path fill="#00853C" d="M115.38,450.27c3.99-0.33,8-1.36,12-0.51c0.06,2.85,1.82,6.33-0.5,8.7c-1.82,2.61-5.83,3.38-8.43,1.52
		C115.82,457.5,116.01,453.56,115.38,450.27z"/>
	<path fill="#00853C" d="M691.52,506.49c-0.26-2.71,2.53-4.14,4.51-5.29c3.83-0.72,7.4,1.46,11.06,2.24
		c5.39,1.65,11.64,2.08,15.78,6.34c1.67,2.15,0.21,4.87-0.31,7.16c-4.14,0.98-8.47,0.72-12.5-0.55c-4.29-1.4-8.83-1.96-12.92-3.95
		C694.55,511.46,691.57,509.59,691.52,506.49z"/>
	<path fill="#00853C" d="M107.74,521.21c7.49-4.55,15.99-6.9,24.23-9.66c3.36-1.4,5.87,1.51,7.83,3.75
		c-0.46,1.53,0.13,3.63-1.2,4.77c-6.3,4.25-13.73,6.05-20.67,8.91c-1.57,0.56-3.24,0.87-4.9,0.83c-2.66,0.35-3.85-2.41-5.5-3.92
		C107.6,524.32,107.67,522.76,107.74,521.21z"/>
	<path fill="#00853C" d="M183.8,625.05c3.31-2.64,6.37-5.68,10.21-7.55c1.59,2.74,5.38,5.74,3.39,9.18
		c-3.35,5.99-9.47,9.46-14.8,13.44c-2.18,1.35-4.4,3.56-7.19,2.98c-2.59-1.24-4.36-3.64-6.34-5.63c2.91-2.75,5.89-5.49,9.36-7.5
		c1.82-0.82,1.93,1.86,2.8,2.79c2.63,0.1,5.02-1.55,5.4-4.25C185.8,627.26,184.78,626.16,183.8,625.05z"/>
	<path fill="#00853C" d="M616.96,645.33c4.07,2.31,7.5,5.54,11.45,8.04c0.08,0.48,0.24,1.44,0.32,1.92
		c-1.51,0.86-2.77,2.92-4.64,2.64C621.47,653.88,618.68,649.86,616.96,645.33z"/>
	<path fill="#00853C" d="M202.58,656.37c3.35-2.94,7.04-5.48,10.67-8.06c0.34,0.25,1.03,0.74,1.37,0.98
		c-2.55,3.66-4.85,7.49-7.57,11.02C205.52,659.03,204.05,657.71,202.58,656.37z"/>
	<path fill="#00853C" d="M560.19,682.13c2.63-1.63,5.33-4.27,8.7-3.42c1.82,1.61,3.75,3.45,4.51,5.81c1.22,4.27-3.96,5.75-6.32,8.23
		C564.06,689.72,562.43,685.69,560.19,682.13z"/>
	<path fill="#00853C" d="M295.52,695c1.09-1.29,2.84-1.47,4.36-1.91c1.47,1.98,4.34,3.64,3.83,6.48
		c-0.92,5.44-3.05,10.58-4.99,15.71c-1.3,3.4-2.77,7.01-5.7,9.35c-2.29,1.31-5.03,0.15-7.06-1.1c-2.47-4.36,1.08-8.72,2.09-12.94
		C290.37,705.33,291.16,699.11,295.52,695z"/>
	<path fill="#00853C" d="M523.15,708.55c0.54-0.69,1.08-1.37,1.63-2.03c1.9,4.19,3.82,8.38,5.98,12.45
		c-2.02,0.2-4.57,1.86-6.33,0.35C523.99,715.73,523.99,712.09,523.15,708.55z"/>
	<path fill="#00853C" d="M488.39,715.52c-0.62-3.32,2.64-6.07,5.55-6.83c5.36,1.23,6.17,7.37,7.17,11.87
		c0.64,5.67,3.31,11.11,2.53,16.9c-1.36,2.98-4.46,4.58-7.68,4.45c-1.51-2.02-3.16-4.06-3.55-6.63
		C491.23,728.66,489.44,722.16,488.39,715.52z"/>
</g>
<g>
	<path fill="#DBCC5C" d="M102.33,186.95c13.58-0.84,27.19-0.22,40.79-0.35c10.39,0.2,20.84-0.74,31.2,0.36
		c-21.77,0.5-43.56,0.52-65.34,0.58C106.75,187.57,104.51,187.46,102.33,186.95z"/>
	<path fill="#DBCC5C" d="M627.2,802.97c1.7-0.34,3.41-0.67,5.12-1.04c-1.55,1.12-2.88,2.49-4.32,3.73
		C627.73,804.76,627.46,803.86,627.2,802.97z"/>
	<path fill="#DBCC5C" d="M556.22,832.63c3.41-0.52,6.84-0.91,10.28-1.26c-2.42,0.67-4.85,1.58-6.23,3.83
		c-0.44,0.06-1.33,0.17-1.78,0.23C557.72,834.48,556.97,833.56,556.22,832.63z"/>
	<path fill="#DBCC5C" d="M540.21,837.43c3.31-0.42,6.63-0.78,9.95-1.13c-2.33,0.76-4.53,1.92-6.19,3.78
		c-0.72,0.07-1.43,0.16-2.14,0.26C541.28,839.36,540.74,838.39,540.21,837.43z"/>
	<path fill="#DBCC5C" d="M341.32,846.3c5.98,0.15,11.96,0.55,17.89,1.38c-2.99,0.38-5.97,0.77-8.96,1.18
		c1.84,0.43,3.69,0.84,5.52,1.32C350.54,850.67,345.77,848.78,341.32,846.3z"/>
</g>
<g>
	<path fill="#E4CC4B" d="M252.6,186.91c3.35-0.29,6.75-0.79,10.1-0.22l0.81,1.76C259.9,187.75,256.21,187.59,252.6,186.91z"/>
</g>
<g>
	<path fill="#EAD356" d="M364.05,187.25c5.39-1.17,10.97-0.97,16.41-0.35l-1.59,0.35C373.94,187.61,368.97,187.7,364.05,187.25z"/>
</g>
<g>
	<path fill="#EDD64C" d="M466.93,189.04c3.44-3.59,8.62-2.42,13.05-2.55c90.01,0.02,180.01,0,270.02,0.01
		c-0.03,0.45-0.11,1.36-0.14,1.81c-1.65-0.38-3.3-0.67-4.96-0.86c-90.32,0.26-180.68-0.02-271.02,0.06
		c-1.95-0.07-3.81,0.54-5.64,1.14L466.93,189.04z"/>
</g>
<g>
	<path fill="#AFA100" d="M429.42,266.11c0.8,7.8,0.19,15.66,0.52,23.48c0.36,1.62-0.87,2.62-1.96,3.55c-0.9-7.2-0.5-14.47-0.6-21.7
		C427.15,269.39,428.16,267.63,429.42,266.11z"/>
</g>
<g>
	<path fill="#F0D546" d="M465.52,304.72c0.36,0.14,1.08,0.4,1.44,0.54l-0.25,0.8l-0.9,0.17l-0.6-0.72L465.52,304.72z"/>
</g>
<g>
	<path fill="#889000" d="M713.65,356.39c3.66-0.41,7.41-1.25,11.1-0.56c-1.64,0.69-3.37,1.19-5.02,1.79
		c1.45,0.53,2.93,1.09,4.41,1.59C720.39,359.43,716.66,358.73,713.65,356.39z"/>
</g>
<g>
	<path fill="#DCED5B" d="M755.21,356.8"/>
</g>
<g>
	<path fill="#F9E12E" d="M298.15,393.66c0.97-0.65,3.15,0.24,2.23,1.57C299.27,397,295.69,394.87,298.15,393.66z"/>
</g>
<g>
	<path fill="#F5E02D" d="M678.64,394.68c0.55-1.06,3-0.86,2.72,0.58C680.78,396.31,678.34,396.11,678.64,394.68z"/>
</g>
<g>
	<path fill="#FFFF4B" d="M743.27,428.85"/>
</g>
<g>
	<path fill="#D8CA59" d="M844.39,476.24c0.43-11.18,0.49-22.38,1.6-33.52c0.58,1.27,1.16,2.55,1.76,3.83
		C845.24,456.3,846.48,466.45,844.39,476.24z"/>
	<path fill="#D8CA59" d="M826.73,554.23c0.38-3.3,1.36-6.48,2.71-9.51c0.06,0.66,0.18,1.98,0.24,2.64
		C828.57,549.59,827.61,551.9,826.73,554.23z"/>
	<path fill="#D8CA59" d="M783.88,653.11c1.01-3.59,2.86-6.84,5.41-9.55C787.58,646.79,785.84,650.02,783.88,653.11z"/>
	<path fill="#D8CA59" d="M214.03,801.69c1.47,0.2,2.94,0.39,4.42,0.57c0.07,1.11,0.15,2.22,0.23,3.35
		C216.85,804.64,215.54,803.04,214.03,801.69z"/>
	<path fill="#D8CA59" d="M222.94,806.41c2.24,0.36,4.48,0.7,6.73,1.06c-0.64,0.86-1.28,1.73-1.91,2.61
		C226.09,808.93,224.61,807.54,222.94,806.41z"/>
	<path fill="#D8CA59" d="M255.44,821.27c2.77,0.41,5.55,0.8,8.32,1.2c-0.49,0.96-0.99,1.91-1.48,2.88
		C259.72,824.5,257.78,822.53,255.44,821.27z"/>
	<path fill="#D8CA59" d="M585.17,822.44c2.48-0.36,4.96-0.7,7.45-1.06c-1.17,0.5-2.33,1-3.48,1.53c-0.19,0.51-0.57,1.55-0.76,2.06
		c-0.62,0.12-1.85,0.34-2.47,0.45C585.66,824.42,585.41,823.43,585.17,822.44z"/>
	<path fill="#D8CA59" d="M282.76,831.28c2.9,0.29,5.81,0.54,8.72,0.83c-0.07,1.12-0.14,2.24-0.2,3.39
		C288.09,834.87,285.57,832.74,282.76,831.28z"/>
	<path fill="#D8CA59" d="M517.97,842.54c4.62-0.57,9.27-0.86,13.93-1.04c-1.56,0.44-3.13,0.86-4.69,1.26
		c-0.2,0.52-0.6,1.57-0.8,2.09c-1.19,0.15-2.37,0.32-3.55,0.45C521.22,844.37,519.6,843.45,517.97,842.54z"/>
</g>
<g>
	<path fill="#B09A01" d="M398.07,471.57c0.9-0.02,2.7-0.06,3.59-0.08c-0.59,1.54-1.85,2.52-3.23,3.31
		C398.34,473.99,398.16,472.38,398.07,471.57z"/>
</g>
<g>
	<path fill="#A89402" d="M447.31,471.44c1.87-0.66,2.7,2.53,0.82,2.98C446.27,474.99,445.45,471.92,447.31,471.44z"/>
</g>
<g>
	<path fill="#647100" d="M120.24,503.1c5.55-1.72,11.11-3.75,16.95-4.13c-1.5,1.07-2.92,2.24-4.26,3.5
		c-1.91,0.14-3.81,0.38-5.71,0.64c-1.78,1.08-3.66,2.01-5.69,2.53c0.89-0.7,1.78-1.39,2.68-2.08
		C122.88,503.47,121.56,503.31,120.24,503.1z"/>
</g>
<g>
	<path fill="#FDFB4E" d="M735.26,517.8"/>
</g>
<g>
	<path fill="#7A6C02" d="M422.09,526.91"/>
</g>
<g>
	<path fill="#727300" d="M685.45,568.31c2.46,0.76,4.82,1.86,6.86,3.44c-3.48,0.16-6.99,0-10.32-1.04c1.22,0.02,2.46,0.03,3.71,0.05
		C685.64,570.15,685.51,568.92,685.45,568.31z"/>
</g>
<g>
	<path fill="#DBC94D" d="M20.19,573.02c2.85,3.14,3.91,7.27,4.05,11.43C22.88,580.64,21.55,576.83,20.19,573.02z"/>
	<path fill="#DBC94D" d="M774.56,668.25c1.85-4.6,4.51-8.8,7.66-12.62c-2.19,3.83-4.2,7.77-6.74,11.39L774.56,668.25z"/>
	<path fill="#DBC94D" d="M642.97,796.42c1.72-2.03,3.45-4.26,6.33-4.57C647.46,793.77,645.93,796.28,642.97,796.42z"/>
	<path fill="#DBC94D" d="M204.61,796.67c1.7,0.26,3.42,0.51,5.13,0.76c-0.02,0.79-0.07,2.38-0.09,3.18
		C207.86,799.43,206.32,797.92,204.61,796.67z"/>
	<path fill="#DBC94D" d="M637.41,797.42c1.59-0.25,3.18-0.5,4.78-0.76c-0.99,0.37-1.97,0.76-2.94,1.17
		c-0.19,0.52-0.56,1.56-0.74,2.08c-1.43,0.48-2.85,0.97-4.28,1.42C635.34,800.07,636.36,798.73,637.41,797.42z"/>
	<path fill="#DBC94D" d="M317.49,841.2c4.82,0.22,9.65,0.58,14.4,1.45c-1.43,0.89-2.86,1.77-4.3,2.65
		C323.86,845.02,320.85,842.56,317.49,841.2z"/>
</g>
<g>
	<path fill="#827E18" d="M183.16,629.7"/>
</g>
<g>
	<path fill="#A19E01" d="M212.47,647.76c1.77-1.51,3.58-2.95,5.48-4.29c0.11,2.48-1.18,4.48-2.92,6.12l-0.41-0.3
		c-0.34-0.24-1.03-0.73-1.37-0.98L212.47,647.76z"/>
</g>
<g>
	<path fill="#EBD001" d="M421.21,668.6c0.42,0.03,1.26,0.11,1.68,0.15c0.83,2.82,0.24,5.82,0.18,8.72
		c-0.71,6.24,0.2,12.55-0.55,18.79c-0.1,1.14-2.26,1.76-1.94,0.02c-0.49-8.9-0.2-17.83-0.62-26.73
		C420.28,669.31,420.9,668.83,421.21,668.6z"/>
</g>
<g>
	<path fill="#989900" d="M521.07,702.65c0.4-0.22,1.2-0.67,1.6-0.9c0.81,1.44,1.63,2.88,2.45,4.33l-0.34,0.44
		c-0.55,0.66-1.09,1.34-1.63,2.03l-0.82,1.03C521.88,707.27,521.45,704.96,521.07,702.65z"/>
</g>
<g>
	<path fill="#F8F038" d="M422.31,753.7c1.31,0.65,1.31,1.32,0.01,2.03C421,755.06,421,754.39,422.31,753.7z"/>
</g>
<g>
	<path fill="#D8CF56" d="M617.38,810.51c1.07-3.2,4.26-3.74,7.18-4.09c-2.05,0.8-3.87,2.03-4.95,4c-1.59,0.38-3.19,0.72-4.76,1.1
		C615.69,811.18,616.53,810.85,617.38,810.51z"/>
	<path fill="#D8CF56" d="M489.7,847.68c6.26-0.77,12.56-1.14,18.86-1.36c-3.9,1.66-7.39,4.41-11.9,4.07
		c-0.43-0.5-1.29-1.5-1.72-2.01C493.18,848.14,491.44,847.9,489.7,847.68z"/>
</g>
</svg>
